<?xml version="1.0" encoding="UTF-8" standalone="no"?>
<svg xmlns:dc="http://purl.org/dc/elements/1.1/" xmlns:cc="http://creativecommons.org/ns#" xmlns:rdf="http://www.w3.org/1999/02/22-rdf-syntax-ns#" xmlns:svg="http://www.w3.org/2000/svg" xmlns="http://www.w3.org/2000/svg" xmlns:xlink="http://www.w3.org/1999/xlink" xmlns:sodipodi="http://sodipodi.sourceforge.net/DTD/sodipodi-0.dtd" xmlns:inkscape="http://www.inkscape.org/namespaces/inkscape" version="1.1" id="S7_BNVjYnpnzi0fK4uBU_top" viewBox="170000 -125000 200000 100000" width="200mm" height="100mm" class="w-100 h-100" sodipodi:docname="top.svg" style="clip-rule:evenodd;fill-rule:evenodd;stroke-width:0;stroke-linecap:round;stroke-linejoin:round" inkscape:version="0.92.4 5da689c313, 2019-01-14">
  <metadata id="metadata131">
    <rdf:RDF>
      <cc:Work rdf:about="">
        <dc:format>image/svg+xml</dc:format>
        <dc:type rdf:resource="http://purl.org/dc/dcmitype/StillImage" />
        <dc:title></dc:title>
      </cc:Work>
    </rdf:RDF>
  </metadata>
  <sodipodi:namedview pagecolor="#ffffff" bordercolor="#666666" borderopacity="1" objecttolerance="10" gridtolerance="10" guidetolerance="10" inkscape:pageopacity="0" inkscape:pageshadow="2" inkscape:window-width="640" inkscape:window-height="480" id="namedview129" showgrid="false" inkscape:zoom="1.573" inkscape:cx="295.1" inkscape:cy="206.7" inkscape:current-layer="S7_BNVjYnpnzi0fK4uBU_top" fit-margin-top="0" fit-margin-left="0" fit-margin-right="0" fit-margin-bottom="0" showguides="true" />
  <defs id="defs114">
    <style id="style2">.S7_BNVjYnpnzi0fK4uBU_fr4 {color: #666666;}
.S7_BNVjYnpnzi0fK4uBU_cu {color: #cccccc;}
.S7_BNVjYnpnzi0fK4uBU_cf {color: #cc9933;}
.S7_BNVjYnpnzi0fK4uBU_sm {color: #004200; opacity: 0.75;}
.S7_BNVjYnpnzi0fK4uBU_ss {color: #ffffff;}
.S7_BNVjYnpnzi0fK4uBU_sp {color: #999999;}
.S7_BNVjYnpnzi0fK4uBU_out {color: #000000;}</style>
    <rect x="-1700" y="-1050" width="3400" height="2100" id="JA6cUUJhrwE4iehy5JW2_pad-11" />
    <circle cx="0" cy="0" r="1050" id="JA6cUUJhrwE4iehy5JW2_pad-12" />
    <rect x="-1050" y="-1050" width="2100" height="2100" rx="1050" ry="1050" id="JA6cUUJhrwE4iehy5JW2_pad-13" />
    <rect x="-2740" y="-1470" width="5480" height="2940" id="JA6cUUJhrwE4iehy5JW2_pad-14" />
    <rect x="-2740" y="-2740" width="5480" height="5480" id="JA6cUUJhrwE4iehy5JW2_pad-15" />
    <rect x="-1290" y="-1000" width="2580" height="2000" id="JA6cUUJhrwE4iehy5JW2_pad-16" />
    <rect x="-950" y="-950" width="1900" height="1900" id="JA6cUUJhrwE4iehy5JW2_pad-17" />
    <rect x="-950" y="-850" width="1900" height="1700" id="JA6cUUJhrwE4iehy5JW2_pad-18" />
    <circle cx="0" cy="0" r="1300" id="JA6cUUJhrwE4iehy5JW2_pad-19" />
    <rect x="-875" y="-875" width="1750" height="1750" id="JA6cUUJhrwE4iehy5JW2_pad-20" />
    <rect x="-825" y="-950" width="1650" height="1900" id="JA6cUUJhrwE4iehy5JW2_pad-21" />
    <g id="S7_BNVjYnpnzi0fK4uBU_top_silkscreen">
      <path d="m 171300,-117700 h -600 m 300,0 v 300 m 300,0 h -600 m 600,300 h -600 l 400,200 -400,200 h 600 m 0,300 v 0 200 0 l -100,100 v 0 h -100 v 0 l -100,-100 v 0 -100 l -100,-100 v 0 0 h -100 -100 v 0 100 100 100 m 600,500 v -100 -100 0 l -100,-100 h -200 l -100,100 v 0 100 100 h 100 v 0 l 100,-300 m -200,600 h 400 m -400,0 v 0 100 0 100 h 100 300 m 0,300 v 0 200 0 h -100 v 0 h -100 v 0 -100 -100 h -100 v 0 h -100 v 100 100 0 m 400,400 v -100 h -100 v 0 h -200 -100 v 0 100 100 0 100 h 100 200 v 0 l 100,-100 v 0 -100 m 0,400 h -400 m 100,0 -100,100 v 0 100 0 m 1300,-3400 v 0 -100 0 -100 l -100,-100 v 0 h -100 -100 -100 -100 v 100 l -100,100 v 0 l 100,100 v 0 m 500,600 -300,-200 m 300,-100 h -600 v 200 l 100,100 v 0 0 h 100 100 v 0 -100 -200 m -200,600 v 0 l -100,100 v 100 l 100,100 v 0 0 h 100 100 l 300,-400 v 400 m -600,400 v 0 l 100,100 v 0 100 h 200 100 100 l 100,-100 v 0 -100 0 -100 0 h -100 l -100,-100 h -100 l -200,100 v 0 0 l -100,100 m 0,400 v 400 l 300,-200 v 0 100 0 l 100,100 h 100 l 100,-100 v 0 -100 -100 -100 0 m -500,600 v 0 l -100,100 v 100 l 100,100 v 0 0 h 100 100 l 300,-300 v 300 m 400,-2500 600,200 -600,200 m 600,500 v -300 m 0,100 h -600 100 v -100 0 m 400,600 v 0 h 100 l -100,-100 v 100 h 100 m 0,600 v -400 m 0,200 h -600 l 100,-100 v 0 -100 m 14400,900 500,100 -500,200 m 400,500 v -100 h 100 v -100 l -100,-100 v 0 h -100 l -100,-100 v 0 l -100,100 h -100 v 0 100 100 0 100 m 400,500 v -100 h 100 v -100 l -100,-100 v 0 h -100 l -100,-100 v 0 l -100,100 h -100 v 0 100 100 0 100 m -11500,-9700 v 500 h 100 100 v 0 l 100,-100 v -100 0 -100 l -100,-100 v 0 l -100,-100 h -100 m 700,500 h -100 v 0 h -100 v -100 -100 -200 0 0 l 100,-100 h 100 v 100 0 h 100 v 200 h -100 v 0 100 h -100 l -100,-100 v 0 0 m 2000,-300 v 500 h 100 100 l 100,-100 v 0 -100 -100 -100 0 l -100,-100 h -100 -100 m 500,500 h 300 l -200,-200 h 100 v 0 l 100,-100 v 0 -100 -100 h -100 v 0 h -100 -100 v 0 m 2100,200 h 200 m -300,-200 200,500 200,-500 m 400,500 h -300 v -200 0 l 100,100 h 100 v -100 h 100 v 0 -200 0 h -100 v -100 h -100 l -100,100 v 0 m 2100,100 h 300 m -300,-200 100,500 200,-500 m 400,400 v -400 m -100,600 -100,-400 h 300 m 1700,0 h 200 m -200,-200 100,500 200,-500 m 100,500 h 300 l -200,-100 h 100 l 100,-100 v 0 0 -200 0 0 l -100,-100 h -100 l -100,100 v 0 m 1500,-500 100,200 m -100,-300 -200,500 500,-300 m -200,500 v 0 0 l 100,100 v 0 0 h 100 v 0 l 100,-100 v -400 l 200,200 m -900,1200 v 200 m 200,-300 -500,200 500,200 m 0,400 v -300 m 0,200 h -500 l 100,-100 v 0 -100 m 200,2100 v 200 m 200,-300 -500,200 500,100 m -500,300 v 100 0 0 l 100,100 h 100 100 100 v -100 h 100 v 0 -100 0 l -100,-100 v 0 h -100 -100 -100 -100 v 100 0 m 100,1900 v 0 -100 -100 0 h 100 l 100,-100 v 0 l 100,100 h 100 v 0 l 100,100 v 0 l -100,100 v 0 h -200 v -100 m 300,400 h -500 l 500,200 h -500 m 500,300 h -500 v 100 100 0 h 100 l 100,100 v 0 l 100,-100 h 100 v 0 l 100,-100 v -100 m -14000,16610 v 20 h -100 l -100,-20 v -50 l -100,-50 v -90 -70 -100 l 100,-50 v -40 l 100,-30 v 0 l 100,30 v 20 170 h -100 m 300,-220 v 500 l 300,-500 v 500 m 300,-500 v 500 h 100 l 100,-20 v -50 -50 l 100,-90 v -70 l -100,-100 v -50 -40 l -100,-30 h -100 m -800,3020 v 20 h -100 l -100,-20 v -50 l -100,-50 v -90 -70 -100 l 100,-50 v -40 l 100,-30 v 0 l 100,30 v 20 170 h -100 m 300,-220 v 500 l 300,-500 v 500 m 300,-500 v 500 h 100 l 100,-20 v -50 -50 l 100,-90 v -70 l -100,-100 v -50 -40 l -100,-30 h -100 m -700,2540 -200,240 m -100,-240 v 500 h 200 v -20 -30 l 100,-40 v -70 l -100,-50 v -30 -20 h -200 m 400,260 400,-500 m 0,500 -400,-500 m 500,0 v 500 h 200 v -20 l 100,-50 v -50 -90 -70 -100 -50 l -100,-40 v -30 h -200 m -900,3040 h 200 m -100,-500 v 500 m 300,0 300,-500 m 0,500 -300,-500 m 500,0 v 500 h 100 l 100,-20 v -50 l 100,-50 v -90 -70 -100 l -100,-50 v -40 l -100,-30 h -100 m -1000,2920 200,-500 200,500 m 400,-460 v -20 l -100,-20 v 0 l -100,20 -100,50 v 40 100 70 100 40 l 100,50 100,30 v 0 l 100,-30 v -20 m 500,-410 v -20 l -100,-20 v 0 l -100,20 -100,50 v 40 100 70 100 40 l 100,50 100,30 v 0 l 100,-30 v -20" id="path15" inkscape:connector-curvature="0" style="fill:none;stroke-width:100" />
      <path d="m 179500,-115300 h -1800 m 2800,0 h 1700 m -2500,-100 h 500 m -500,0 -100,-100 v -800 l -100,-100 h -1800 l -200,100 v 800 l -100,100 m 5100,0 -100,-100 v -800 l -200,-100 h -1700 l -200,100 v 800 l -100,100 m 300,20970 h 1700 m -4500,0 h 1800 m 200,130 h 500 m 2300,0 -100,130 v 760 l -200,130 h -1700 m -300,-1020 100,130 v 760 l 200,130 m -2800,0 h 1800 l 100,-130 v -760 l 100,-130 m -2300,0 100,130 v 760 l 200,130 m 3300,-17820 v 1600 m 0,9400 v 1480 m 500,-1980 a 1270,1270 0 0 1 1300,1220 1270,1270 0 0 1 -1300,1270 h -4600 m 4600,-2490 h -4600 m 3600,-100 a 2396,2396 0 1 1 0,2590 m 0,-13490 a 2396,2396 0 1 1 0,2600 m 1000,-2600 h -4600 m 4600,2600 h -4600 m 5900,-1300 a 1270,1270 0 0 1 -1300,1300 m 0,-2600 a 1270,1270 0 0 1 1300,1300 m -11100,11190 a 10040,10040 0 0 1 0,-11490 m 5700,15790 -5600,-1770 m 0,-40 a 1171,1171 0 0 1 -200,-1740 m 200,-14740 5600,-1800 m -5900,3600 a 1198,1198 0 0 1 300,-1800 m 5600,18800 v -510 m 0,-20590 v 500 m 7100,20600 -200,-250 m 200,-20850 -200,300 m 0,20800 v -250 m 0,-20850 v 300 m -12700,3800 a 10000,10000 0 0 1 0,12940 m 16000,-12940 a 10000,10000 0 0 1 0,12940 m -300,-13740 v 14500 m -2800,-17800 3100,3100 -300,200 m -3000,-3300 h -1800 m 5100,18050 -3100,3050 m 3100,-3050 -300,-250 m -3000,3300 h -1800" id="path17" inkscape:connector-curvature="0" style="fill:none;stroke-width:127" />
      <path d="m 183800,-105900 v 2100 m 1000,-1000 h -2000" id="path19" inkscape:connector-curvature="0" style="fill:none;stroke-width:254" />
      <path d="m 182800,-121800 h -6100 v 3600 h 6100 v -3600 m -6000,36360 h 6100 v -3620 h -6100 v 3620 m 12700,-7040 v 1700 m 0,0 h -4100 m 4100,-1700 h -4100 m 4100,2090 v 1700 m 0,0 h -4100 m 4100,-1700 h -4100 m 2500,-4220 h -1200 m 0,1760 h 1200 m -8500,3560 h 1200 m 0,-1760 h -1200 m -8600,3630 v -60 h 2100 v 60 h -2100 m 0,1000 v 1060 h 1000 m 3500,-5830 v -1000 m 1700,0 v 1000" id="path21" inkscape:connector-curvature="0" style="fill:none;stroke-width:120" />
      <path d="m 175300,-105500 100,100 v 100 h 100 100 100 v -100 h 100 v -300 h -900 v 200 l 100,100 v 0 l 100,100 h 100 l 100,-100 v 0 -100 -200 m -400,600 v 500 m 900,-200 h -900 m 900,900 v -500 m 0,300 h -900 l 200,-100 v -100 l 100,-100 m 10900,-2100 100,100 v 0 l 100,100 h 100 l 100,-100 v 0 l 100,-100 v -300 h -900 v 300 l 100,100 v 0 h 100 100 v 0 h 100 v -100 -300 m 500,1200 h -500 l -100,-100 v 0 -200 -100 m 500,400 100,-100 v -200 l -100,-100 h -100 v 0 h -100 l -100,100 v 200 100 m -200,200 v 300 m -300,-100 h 700 100 l 100,100 v 0 m -600,200 v 300 m -300,-200 h 700 l 100,100 h 100 v 100 m -100,600 100,-100 v -100 l -100,-100 -100,-100 h -300 l -100,100 v 100 100 100 h 100 100 l 100,-400 m 300,800 h -600 m 200,0 h -100 l -100,100 v 0 100 m 0,200 600,200 m -600,200 600,-200 100,-100 h 100 v -100" id="path23" inkscape:connector-curvature="0" style="fill:none;stroke-width:76.2" />
      <path d="m 178400,-120400 200,-100 h 200 l 100,100 h 100 v 100 100 100 l -100,100 h -100 l -200,100 h -100 v 100 h -100 v 100 l 100,100 v 100 h 100 300 100 m 300,0 300,-1000 200,700 200,-700 200,1000 m 900,-1000 h -600 m 300,0 v 1000 l -100,-100 -100,-100 -100,-100 m -7000,1100 -300,400 m -100,-400 v 800 h 300 v 0 h 100 v -100 -100 -100 h -100 v -100 h -300 m 1100,-300 -100,-100 h -200 v 100 l -100,100 v 300 h 100 v 100 h 200 l 100,-100 v 0 -100 l -400,-100 m 700,-200 100,-100 h 100 l 100,100 v 100 0 100 h -100 -100 -100 v 100 100 0 l 100,100 h 100 l 100,-100 m 700,-400 -100,-100 h -100 l -100,100 -100,100 v 300 h 100 l 100,100 h 100 l 100,-100 v 0 -100 l -400,-100 m 700,300 h 300 m -200,200 v -600 -100 l 100,-100 h 100 m 2400,31050 100,-50 h 300 l 100,50 v 40 l 100,100 v 90 l -100,100 v 50 l -100,40 -200,50 -100,50 -100,50 v 90 100 90 l 100,50 100,50 h 200 l 200,-50 m 300,50 200,-1000 200,710 200,-710 300,1000 m 300,-100 v 50 l 100,50 h 300 l 100,-50 v -50 l 100,-90 v -100 l -100,-140 -600,-570 h 700 m 2500,1690 -100,-40 -100,-40 h -100 l -100,40 -100,80 v 70 160 110 150 80 l 100,70 100,40 h 100 l 100,-40 100,-30 m 400,-730 -100,40 v 40 70 230 80 40 l 100,40 h 100 l 100,-40 v -40 l 100,-80 v -230 l -100,-70 v -40 l -100,-40 h -100 m 600,540 v -540 m 0,460 100,40 v 40 h 200 v -40 l 100,-80 v -420 m 200,540 h 300 m -200,-540 v 690 l 100,70 100,40 v 0 m 300,-800 v 540 m 0,260 v -40 -30 30 40 -70 m 700,-190 v -650 -80 -40 l -100,-30 h -100 l -100,30 m 300,270 v -40 h -200 l -100,40 v 40 l -100,70 v 230 l 100,80 v 40 l 100,40 h 200 v -40 m -200,-6560 v 1000 h 200 l 200,-40 100,-100 v -90 l 100,-200 v -140 l -100,-190 v -90 l -100,-100 -200,-50 h -200 m 1500,0 h -600 m 300,0 v 1000 l -100,-140 -100,-90 -100,-50 m -1000,1320 v 1000 h 200 l 200,-50 v -100 l 100,-90 v -190 -150 -190 l -100,-90 v -100 l -200,-40 h -200 m 900,900 100,50 100,50 h 200 l 100,-50 v -50 l 100,-100 v -90 l -100,-140 -500,-570 h 600 m 700,-5850 -300,480 m -300,-480 v 1000 h 400 l 100,-40 v -50 l 100,-100 v -140 l -100,-100 v -40 l -100,-50 h -400 m 1000,430 v 50 l 100,40 h 300 v -40 l 100,-50 v -100 -90 -150 l -600,-570 h 600 m -6600,5210 -300,480 m -200,-480 v 1000 h 400 v -50 l 100,-50 v -90 -140 -100 l -100,-50 v -40 h -400 m 900,520 h 600 l -300,-380 h 100 l 100,-50 v -50 l 100,-90 v -240 l -100,-90 v -50 l -100,-50 h -300 l -100,50 v 50 m -9500,2510 v 480 m 300,-570 -1000,330 1000,330 m 0,340 h -1000 l 1000,570 h -1000 m 0,330 v 570 m 1000,-280 h -1000 m 2800,-8810 -100,-40 -100,-50 h -100 l -100,50 -100,90 -100,100 v 190 140 190 l 100,100 100,90 100,50 h 100 l 100,-50 100,-50 m 800,100 h -100 l -100,-50 -100,-50 -100,-140 v -190 -380 -100 l 100,-40 100,-50 h 200 v 50 l 100,40 v 100 240 90 l -100,50 v 50 h -200 l -100,-50 -100,-50 v -90" id="path25" inkscape:connector-curvature="0" style="fill:none;stroke-width:150" />
    </g>
    <g id="S7_BNVjYnpnzi0fK4uBU_top_soldermask">
      <use xlink:href="#JA6cUUJhrwE4iehy5JW2_pad-11" x="171400" y="-89281" id="use28" width="100%" height="100%" />
      <use xlink:href="#JA6cUUJhrwE4iehy5JW2_pad-11" x="171400" y="-94361" id="use30" width="100%" height="100%" />
      <use xlink:href="#JA6cUUJhrwE4iehy5JW2_pad-11" x="171400" y="-99441" id="use32" width="100%" height="100%" />
      <use xlink:href="#JA6cUUJhrwE4iehy5JW2_pad-11" x="171400" y="-91821" id="use34" width="100%" height="100%" />
      <use xlink:href="#JA6cUUJhrwE4iehy5JW2_pad-11" x="171400" y="-96901" id="use36" width="100%" height="100%" />
      <use xlink:href="#JA6cUUJhrwE4iehy5JW2_pad-12" x="188700" y="-113600" id="use38" width="100%" height="100%" />
      <use xlink:href="#JA6cUUJhrwE4iehy5JW2_pad-13" x="188700" y="-116100" id="use40" width="100%" height="100%" />
      <use xlink:href="#JA6cUUJhrwE4iehy5JW2_pad-13" x="188700" y="-118700" id="use42" width="100%" height="100%" />
      <use xlink:href="#JA6cUUJhrwE4iehy5JW2_pad-13" x="188700" y="-121200" id="use44" width="100%" height="100%" />
      <use xlink:href="#JA6cUUJhrwE4iehy5JW2_pad-12" x="188722" y="-123800" id="use46" width="100%" height="100%" />
      <use xlink:href="#JA6cUUJhrwE4iehy5JW2_pad-13" x="186182" y="-123800" id="use48" width="100%" height="100%" />
      <use xlink:href="#JA6cUUJhrwE4iehy5JW2_pad-13" x="183642" y="-123800" id="use50" width="100%" height="100%" />
      <use xlink:href="#JA6cUUJhrwE4iehy5JW2_pad-13" x="181102" y="-123800" id="use52" width="100%" height="100%" />
      <use xlink:href="#JA6cUUJhrwE4iehy5JW2_pad-13" x="178562" y="-123800" id="use54" width="100%" height="100%" />
      <use xlink:href="#JA6cUUJhrwE4iehy5JW2_pad-13" x="176022" y="-123800" id="use56" width="100%" height="100%" />
      <use xlink:href="#JA6cUUJhrwE4iehy5JW2_pad-14" x="179959" y="-93218" id="use58" width="100%" height="100%" />
      <use xlink:href="#JA6cUUJhrwE4iehy5JW2_pad-14" x="179959" y="-116459" id="use60" width="100%" height="100%" />
      <use xlink:href="#JA6cUUJhrwE4iehy5JW2_pad-15" x="179959" y="-104800" id="use62" width="100%" height="100%" />
      <use xlink:href="#JA6cUUJhrwE4iehy5JW2_pad-16" x="184400" y="-120015" id="use64" width="100%" height="100%" />
      <use xlink:href="#JA6cUUJhrwE4iehy5JW2_pad-16" x="175200" y="-120015" id="use66" width="100%" height="100%" />
      <use xlink:href="#JA6cUUJhrwE4iehy5JW2_pad-16" x="175242" y="-87249" id="use68" width="100%" height="100%" />
      <use xlink:href="#JA6cUUJhrwE4iehy5JW2_pad-16" x="184422" y="-87249" id="use70" width="100%" height="100%" />
      <use xlink:href="#JA6cUUJhrwE4iehy5JW2_pad-17" x="185400" y="-91630" id="use72" width="100%" height="100%" />
      <use xlink:href="#JA6cUUJhrwE4iehy5JW2_pad-17" x="188700" y="-91630" id="use74" width="100%" height="100%" />
      <use xlink:href="#JA6cUUJhrwE4iehy5JW2_pad-17" x="185400" y="-89535" id="use76" width="100%" height="100%" />
      <use xlink:href="#JA6cUUJhrwE4iehy5JW2_pad-17" x="188700" y="-89535" id="use78" width="100%" height="100%" />
      <use xlink:href="#JA6cUUJhrwE4iehy5JW2_pad-18" x="185975" y="-93726" id="use80" width="100%" height="100%" />
      <use xlink:href="#JA6cUUJhrwE4iehy5JW2_pad-18" x="188675" y="-93726" id="use82" width="100%" height="100%" />
      <use xlink:href="#JA6cUUJhrwE4iehy5JW2_pad-18" x="181309" y="-90170" id="use84" width="100%" height="100%" />
      <use xlink:href="#JA6cUUJhrwE4iehy5JW2_pad-18" x="178609" y="-90170" id="use86" width="100%" height="100%" />
      <use xlink:href="#JA6cUUJhrwE4iehy5JW2_pad-19" x="188087" y="-86741" id="use88" width="100%" height="100%" />
      <use xlink:href="#JA6cUUJhrwE4iehy5JW2_pad-19" x="171958" y="-123190" id="use90" width="100%" height="100%" />
      <use xlink:href="#JA6cUUJhrwE4iehy5JW2_pad-20" x="171831" y="-86420" id="use92" width="100%" height="100%" />
      <use xlink:href="#JA6cUUJhrwE4iehy5JW2_pad-21" x="176149" y="-92944" id="use94" width="100%" height="100%" />
      <use xlink:href="#JA6cUUJhrwE4iehy5JW2_pad-21" x="176149" y="-90444" id="use96" width="100%" height="100%" />
    </g>
    <clipPath id="S7_BNVjYnpnzi0fK4uBU_top_outline">
      <path d="m 170000,-125000 v 40000 h 20000 v -40000 h -20000" id="path99" inkscape:connector-curvature="0" style="fill:none;stroke-width:150" />
    </clipPath>
    <mask id="S7_BNVjYnpnzi0fK4uBU_top_mech-mask">
      <g id="g104" style="fill:#000000;stroke:#000000">
        <rect x="170000" y="-125000" width="20000" height="40000" id="rect102" style="fill:#ffffff" />
      </g>
    </mask>
    <mask id="S7_BNVjYnpnzi0fK4uBU_top_sm-mask">
      <g id="g111" style="fill:#000000;stroke:#000000">
        <rect x="170000" y="-125000" width="20000" height="40000" id="rect107" style="fill:#ffffff" />
        <use xlink:href="#S7_BNVjYnpnzi0fK4uBU_top_soldermask" id="use109" x="0" y="0" width="100%" height="100%" />
      </g>
    </mask>
  </defs>
  <g id="g5054" transform="rotate(90,270000,-25000)">
    <g id="g126" transform="matrix(5,0,0,-5,-680000,-550000)">
      <g id="g124" clip-path="url(#S7_BNVjYnpnzi0fK4uBU_top_outline)" mask="url(#S7_BNVjYnpnzi0fK4uBU_top_mech-mask)">
        <rect style="color:#666666;fill:currentColor" id="rect116" class="S7_BNVjYnpnzi0fK4uBU_fr4" height="40000" width="20000" y="-125000" x="170000" />
        <g id="g122" mask="url(#S7_BNVjYnpnzi0fK4uBU_top_sm-mask)">
          <rect style="color:#004200;opacity:0.75;fill:currentColor" id="rect118" class="S7_BNVjYnpnzi0fK4uBU_sm" height="40000" width="20000" y="-125000" x="170000" />
          <use height="100%" width="100%" y="0" x="0" style="color:#ffffff;fill:currentColor;stroke:currentColor" id="use120" class="S7_BNVjYnpnzi0fK4uBU_ss" xlink:href="#S7_BNVjYnpnzi0fK4uBU_top_silkscreen" />
        </g>
      </g>
    </g>
    <g id="text1075" style="font-style:normal;font-weight:normal;font-size:5292px;line-height:1.2;font-family:sans-serif;letter-spacing:0px;word-spacing:0px;fill:#ffff00;fill-opacity:1;stroke:none;stroke-width:0" />
    <g id="text1079" style="font-style:normal;font-weight:normal;font-size:5292px;line-height:1.2;font-family:sans-serif;letter-spacing:0px;word-spacing:0px;fill:#ffff00;fill-opacity:1;stroke:none;stroke-width:0" />
    <g id="text1083" style="font-style:normal;font-weight:normal;font-size:6350px;line-height:1.2;font-family:sans-serif;letter-spacing:0px;word-spacing:0px;fill:#ffff00;fill-opacity:1;stroke:none;stroke-width:0" />
    <g id="text1087" style="font-style:normal;font-weight:normal;font-size:5292px;line-height:1.2;font-family:sans-serif;letter-spacing:0px;word-spacing:0px;fill:#ffff00;fill-opacity:1;stroke:none;stroke-width:0" aria-label="1k5Ω">
      <path inkscape:connector-curvature="0" id="path1226" style="font-style:normal;font-variant:normal;font-weight:bold;font-stretch:normal;font-family:sans-serif;-inkscape-font-specification:'sans-serif Bold';fill:#ffff00;stroke-width:0" d="m 212300,-97990 h 900 v -2510 l -900,200 v -700 l 900,-200 h 900 v 3210 h 900 v 690 h -2700 z" />
      <path inkscape:connector-curvature="0" id="path1228" style="font-style:normal;font-variant:normal;font-weight:bold;font-stretch:normal;font-family:sans-serif;-inkscape-font-specification:'sans-serif Bold';fill:#ffff00;stroke-width:0" d="m 215800,-101300 h 1000 v 2170 l 1000,-1070 h 1100 l -1400,1330 1500,1570 h -1100 l -1100,-1210 v 1210 h -1000 z" />
      <path inkscape:connector-curvature="0" id="path1230" style="font-style:normal;font-variant:normal;font-weight:bold;font-stretch:normal;font-family:sans-serif;-inkscape-font-specification:'sans-serif Bold';fill:#ffff00;stroke-width:0" d="m 219500,-101200 h 2400 v 800 h -1600 v 570 q 100,-30 200,-50 100,-10 200,-10 700,0 1100,350 400,350 400,980 0,630 -400,980 -400,350 -1200,350 -300,0 -700,-60 -300,-60 -600,-190 v -780 q 300,180 600,270 300,90 500,90 400,0 600,-180 200,-180 200,-480 0,-300 -200,-480 -200,-180 -600,-180 -200,0 -400,60 -300,60 -500,170 z" />
      <path inkscape:connector-curvature="0" id="path1232" style="font-style:normal;font-variant:normal;font-weight:bold;font-stretch:normal;font-family:sans-serif;-inkscape-font-specification:'sans-serif Bold';fill:#ffff00;stroke-width:0" d="m 224800,-101200 q 1000,0 1500,500 500,500 500,1340 0,900 -700,1310 h 800 v 750 h -1700 v -810 q 100,-50 100,-130 500,-450 500,-1100 0,-500 -300,-860 -200,-300 -700,-300 -400,0 -700,300 -200,360 -200,860 0,650 400,1100 100,80 200,130 v 810 h -1800 v -750 h 800 q -700,-410 -700,-1310 0,-840 600,-1340 500,-500 1400,-500 z" />
    </g>
    <g id="text1091" style="font-style:normal;font-weight:normal;font-size:5292px;line-height:1.2;font-family:sans-serif;letter-spacing:0px;word-spacing:0px;fill:#ffff00;fill-opacity:1;stroke:none;stroke-width:0" transform="rotate(-90)" aria-label="10µF">
      <path inkscape:connector-curvature="0" id="path1235" style="font-style:normal;font-variant:normal;font-weight:bold;font-stretch:normal;font-family:sans-serif;-inkscape-font-specification:'sans-serif Bold';fill:#ffff00;stroke-width:0" d="m 84040,201700 h 880 v -2500 l -900,200 v -700 l 890,-200 h 950 v 3200 h 880 v 700 h -2700 z" />
      <path inkscape:connector-curvature="0" id="path1237" style="font-style:normal;font-variant:normal;font-weight:bold;font-stretch:normal;font-family:sans-serif;-inkscape-font-specification:'sans-serif Bold';fill:#ffff00;stroke-width:0" d="m 89540,200500 q 0,-800 -140,-1100 -130,-200 -450,-200 -330,0 -460,200 -140,300 -140,1100 0,700 140,1000 130,300 460,300 310,0 450,-300 140,-300 140,-1000 z m 990,0 q 0,900 -410,1500 -420,500 -1170,500 -770,0 -1180,-500 -410,-600 -410,-1500 0,-1000 410,-1500 410,-500 1180,-500 750,0 1170,500 410,500 410,1500 z" />
      <path inkscape:connector-curvature="0" id="path1239" style="font-style:normal;font-variant:normal;font-weight:bold;font-stretch:normal;font-family:sans-serif;-inkscape-font-specification:'sans-serif Bold';fill:#ffff00;stroke-width:0" d="m 91230,203500 v -4000 h 940 v 1700 q 0,300 130,400 130,200 390,200 270,0 390,-200 130,-100 130,-400 v -1700 h 930 v 1900 q 0,200 50,300 40,100 140,100 50,0 90,0 40,-100 90,-100 v 700 q -140,0 -260,0 -120,100 -230,100 -230,0 -380,-100 -140,-100 -230,-300 -130,200 -300,300 -180,100 -410,100 -190,0 -320,-100 -140,0 -210,-200 v 1300 z" />
      <path inkscape:connector-curvature="0" id="path1241" style="font-style:normal;font-variant:normal;font-weight:bold;font-stretch:normal;font-family:sans-serif;-inkscape-font-specification:'sans-serif Bold';fill:#ffff00;stroke-width:0" d="m 95160,198500 h 2690 v 800 h -1690 v 700 h 1590 v 800 h -1590 v 1600 h -1000 z" />
    </g>
    <g id="text1087-0" style="font-style:normal;font-weight:normal;font-size:5292px;line-height:1.2;font-family:sans-serif;letter-spacing:0px;word-spacing:0px;clip-rule:evenodd;fill:#ffff00;fill-opacity:1;fill-rule:evenodd;stroke:none;stroke-width:0;stroke-linecap:round;stroke-linejoin:round" transform="matrix(0,0,0,0,252300,-81200)" aria-label="1k5Ω">
      <path inkscape:connector-curvature="0" id="path1244" style="font-style:normal;font-variant:normal;font-weight:bold;font-stretch:normal;font-family:sans-serif;-inkscape-font-specification:'sans-serif Bold';fill:#ffff00;stroke-width:0" d="m 212300,-97990 h 900 v -2510 l -900,200 v -700 l 900,-200 h 900 v 3210 h 900 v 690 h -2700 z" />
      <path inkscape:connector-curvature="0" id="path1246" style="font-style:normal;font-variant:normal;font-weight:bold;font-stretch:normal;font-family:sans-serif;-inkscape-font-specification:'sans-serif Bold';fill:#ffff00;stroke-width:0" d="m 215800,-101300 h 1000 v 2170 l 1000,-1070 h 1100 l -1400,1330 1500,1570 h -1100 l -1100,-1210 v 1210 h -1000 z" />
      <path inkscape:connector-curvature="0" id="path1248" style="font-style:normal;font-variant:normal;font-weight:bold;font-stretch:normal;font-family:sans-serif;-inkscape-font-specification:'sans-serif Bold';fill:#ffff00;stroke-width:0" d="m 219500,-101200 h 2400 v 800 h -1600 v 570 q 100,-30 200,-50 100,-10 200,-10 700,0 1100,350 400,350 400,980 0,630 -400,980 -400,350 -1200,350 -300,0 -700,-60 -300,-60 -600,-190 v -780 q 300,180 600,270 300,90 500,90 400,0 600,-180 200,-180 200,-480 0,-300 -200,-480 -200,-180 -600,-180 -200,0 -400,60 -300,60 -500,170 z" />
      <path inkscape:connector-curvature="0" id="path1250" style="font-style:normal;font-variant:normal;font-weight:bold;font-stretch:normal;font-family:sans-serif;-inkscape-font-specification:'sans-serif Bold';fill:#ffff00;stroke-width:0" d="m 224800,-101200 q 1000,0 1500,500 500,500 500,1340 0,900 -700,1310 h 800 v 750 h -1700 v -810 q 100,-50 100,-130 500,-450 500,-1100 0,-500 -300,-860 -200,-300 -700,-300 -400,0 -700,300 -200,360 -200,860 0,650 400,1100 100,80 200,130 v 810 h -1800 v -750 h 800 q -700,-410 -700,-1310 0,-840 600,-1340 500,-500 1400,-500 z" />
    </g>
    <g id="text1133" style="font-style:normal;font-weight:normal;font-size:5292px;line-height:1.2;font-family:sans-serif;letter-spacing:0px;word-spacing:0px;fill:#ffff00;fill-opacity:1;stroke:none;stroke-width:0" aria-label="1k5Ω">
      <path inkscape:connector-curvature="0" id="path1253" style="font-style:normal;font-variant:normal;font-weight:bold;font-stretch:normal;font-family:sans-serif;-inkscape-font-specification:'sans-serif Bold';fill:#ffff00;stroke-width:0" d="m 249100,-80050 h 900 v -2490 l -900,180 v -670 l 900,-190 h 900 v 3170 h 900 v 690 h -2700 z" />
      <path inkscape:connector-curvature="0" id="path1255" style="font-style:normal;font-variant:normal;font-weight:bold;font-stretch:normal;font-family:sans-serif;-inkscape-font-specification:'sans-serif Bold';fill:#ffff00;stroke-width:0" d="m 252600,-83380 h 1000 v 2190 l 1000,-1060 h 1100 l -1400,1320 1500,1570 h -1100 l -1100,-1210 v 1210 h -1000 z" />
      <path inkscape:connector-curvature="0" id="path1257" style="font-style:normal;font-variant:normal;font-weight:bold;font-stretch:normal;font-family:sans-serif;-inkscape-font-specification:'sans-serif Bold';fill:#ffff00;stroke-width:0" d="m 256300,-83220 h 2400 v 730 h -1600 v 600 q 100,-30 200,-50 100,-10 200,-10 700,0 1100,350 400,350 400,980 0,630 -400,980 -400,350 -1200,350 -300,0 -700,-60 -300,-60 -600,-190 v -780 q 300,180 600,270 300,90 500,90 400,0 600,-180 200,-180 200,-480 0,-300 -200,-480 -200,-180 -600,-180 -200,0 -400,60 -300,60 -500,170 z" />
      <path inkscape:connector-curvature="0" id="path1259" style="font-style:normal;font-variant:normal;font-weight:bold;font-stretch:normal;font-family:sans-serif;-inkscape-font-specification:'sans-serif Bold';fill:#ffff00;stroke-width:0" d="m 261600,-83290 q 1000,0 1500,530 500,540 500,1340 0,900 -700,1310 h 800 v 750 h -1700 v -810 q 100,-50 100,-130 500,-450 500,-1100 0,-500 -300,-830 -200,-340 -700,-340 -400,0 -700,340 -200,330 -200,830 0,650 400,1100 100,80 200,130 v 810 h -1800 v -750 h 800 q -700,-410 -700,-1310 0,-800 600,-1340 500,-530 1400,-530 z" />
    </g>
    <g id="text1137" style="font-style:normal;font-variant:normal;font-weight:bold;font-stretch:normal;font-size:5292px;line-height:1.2;font-family:sans-serif;-inkscape-font-specification:'sans-serif Bold';letter-spacing:0px;word-spacing:0px;fill:#ffff00;fill-opacity:1;stroke:none;stroke-width:0" />
    <g id="text1141" style="font-style:normal;font-weight:normal;font-size:5292px;line-height:1.2;font-family:sans-serif;letter-spacing:0px;word-spacing:0px;fill:#ffff00;fill-opacity:1;stroke:none;stroke-width:0" aria-label="|— ">
      <path inkscape:connector-curvature="0" id="path1263" style="font-style:normal;font-variant:normal;font-weight:bold;font-stretch:normal;font-family:sans-serif;-inkscape-font-specification:'sans-serif Bold';fill:#ffff00;stroke-width:0" d="m 244300,-104500 v 5250 h -600 v -5250 z" />
      <path inkscape:connector-curvature="0" id="path1265" style="font-style:normal;font-variant:normal;font-weight:bold;font-stretch:normal;font-family:sans-serif;-inkscape-font-specification:'sans-serif Bold';fill:#ffff00;stroke-width:0" d="m 245200,-102300 h 4700 v 700 h -4700 z" />
    </g>
    <g id="text1145" style="font-style:normal;font-variant:normal;font-weight:bold;font-stretch:normal;font-size:4396.978px;line-height:1.2;font-family:sans-serif;-inkscape-font-specification:'sans-serif Bold';letter-spacing:0px;word-spacing:0px;fill:#ffff00;fill-opacity:1;stroke:none;stroke-width:0" aria-label="grün">
      <path inkscape:connector-curvature="0" id="path1268" style="font-size:3517.3611px;fill:#ffff00;stroke-width:0" d="m 260600,-101200 q -100,100 -300,200 -100,100 -300,100 -400,0 -600,-300 -200,-300 -200,-700 0,-400 200,-700 200,-300 600,-300 200,0 300,100 200,100 300,300 v -300 h 600 v 1700 q 0,500 -300,700 -300,300 -800,300 -200,0 -400,-100 -100,0 -300,-100 v -400 q 200,100 300,100 200,100 300,100 300,0 500,-200 100,-100 100,-400 z m -400,-1200 q -200,0 -300,100 -100,200 -100,400 0,300 100,400 100,200 300,200 200,0 300,-200 100,-100 100,-400 0,-200 -100,-400 -100,-100 -300,-100 z" />
      <path inkscape:connector-curvature="0" id="path1270" style="font-size:3517.3611px;fill:#ffff00;stroke-width:0" d="m 263200,-102300 q 0,0 -100,-100 -100,0 -200,0 -200,0 -300,200 -200,100 -200,400 v 900 h -600 v -1900 h 600 v 300 q 100,-200 300,-300 200,-100 400,-100 0,0 0,0 100,0 100,0 z" />
      <path inkscape:connector-curvature="0" id="path1272" style="font-size:3517.3611px;fill:#ffff00;stroke-width:0" d="m 263500,-101600 v -1200 h 600 v 200 q 0,100 0,400 0,200 0,300 0,200 100,300 0,100 0,200 0,0 100,100 100,0 100,0 200,0 300,-200 100,-100 100,-400 v -900 h 700 v 1900 h -700 v -300 q -100,200 -200,300 -200,0 -400,0 -300,0 -500,-200 -200,-200 -200,-500 z m 500,-2000 h 400 v 400 h -400 z m 600,0 h 400 v 400 h -400 z" />
      <path inkscape:connector-curvature="0" id="path1274" style="font-size:3517.3611px;fill:#ffff00;stroke-width:0" d="m 268000,-102100 v 1200 h -600 v -200 -700 q 0,-200 0,-300 -100,-100 -100,-200 0,0 -100,-100 0,0 -100,0 -200,0 -300,100 -100,200 -100,500 v 900 h -600 v -1900 h 600 v 300 q 100,-200 300,-300 100,-100 300,-100 300,0 500,200 200,200 200,600 z" />
    </g>
    <g id="text1149" style="font-style:normal;font-variant:normal;font-weight:bold;font-stretch:normal;font-size:5292px;line-height:1.2;font-family:sans-serif;-inkscape-font-specification:'sans-serif Bold';letter-spacing:0px;word-spacing:0px;fill:#ffff00;fill-opacity:1;stroke:none;stroke-width:0" aria-label="rot">
      <path inkscape:connector-curvature="0" id="path1277" style="font-size:4233.3335px;fill:#ffff00;stroke-width:0" d="m 262100,-92180 q -100,-40 -200,-60 -100,-20 -200,-20 -300,0 -500,180 -100,180 -100,520 v 1070 h -700 v -2320 h 700 v 380 q 100,-220 300,-330 200,-100 500,-100 0,0 0,0 100,0 200,20 z" />
      <path inkscape:connector-curvature="0" id="path1279" style="font-size:4233.3335px;fill:#ffff00;stroke-width:0" d="m 263500,-92330 q -200,0 -300,180 -200,170 -200,500 0,340 200,510 100,180 300,180 300,0 400,-180 100,-170 100,-510 0,-330 -100,-500 -100,-180 -400,-180 z m 0,-530 q 600,0 1000,320 300,320 300,890 0,570 -300,900 -400,320 -1000,320 -600,0 -900,-320 -300,-330 -300,-900 0,-570 300,-890 300,-320 900,-320 z" />
      <path inkscape:connector-curvature="0" id="path1281" style="font-size:4233.3335px;fill:#ffff00;stroke-width:0" d="m 266200,-93460 v 650 h 700 v 530 h -700 v 990 q 0,160 0,210 100,60 300,60 h 400 v 530 h -700 q -400,0 -600,-180 -200,-190 -200,-620 v -990 h -300 v -530 h 300 v -650 z" />
    </g>
    <g id="text1153" style="font-style:normal;font-weight:normal;font-size:5292px;line-height:1.2;font-family:sans-serif;letter-spacing:0px;word-spacing:0px;fill:#ffff00;fill-opacity:1;stroke:none;stroke-width:0" aria-label="|— ">
      <path inkscape:connector-curvature="0" id="path1284" style="font-style:normal;font-variant:normal;font-weight:bold;font-stretch:normal;font-family:sans-serif;-inkscape-font-specification:'sans-serif Bold';fill:#ffff00;stroke-width:0" d="m 244500,-94730 v 5290 h -600 v -5290 z" />
      <path inkscape:connector-curvature="0" id="path1286" style="font-style:normal;font-variant:normal;font-weight:bold;font-stretch:normal;font-family:sans-serif;-inkscape-font-specification:'sans-serif Bold';fill:#ffff00;stroke-width:0" d="m 245400,-92470 h 4700 v 660 h -4700 z" />
    </g>
  </g>
</svg>
