<?xml version="1.0" encoding="UTF-8" standalone="no"?>
<svg xmlns:dc="http://purl.org/dc/elements/1.1/" xmlns:cc="http://creativecommons.org/ns#" xmlns:rdf="http://www.w3.org/1999/02/22-rdf-syntax-ns#" xmlns:svg="http://www.w3.org/2000/svg" xmlns="http://www.w3.org/2000/svg" xmlns:xlink="http://www.w3.org/1999/xlink" xmlns:sodipodi="http://sodipodi.sourceforge.net/DTD/sodipodi-0.dtd" xmlns:inkscape="http://www.inkscape.org/namespaces/inkscape" version="1.1" id="o45N4aQUgNGyd4wnvegB_top" viewBox="170000 -125000 200000 100000" width="200mm" height="100mm" class="w-100 h-100" sodipodi:docname="StepUp-Top-Parts.svg" style="clip-rule:evenodd;fill-rule:evenodd;stroke-width:0;stroke-linecap:round;stroke-linejoin:round" inkscape:version="0.92.4 5da689c313, 2019-01-14">
  <metadata id="metadata221">
    <rdf:RDF>
      <cc:Work rdf:about="">
        <dc:format>image/svg+xml</dc:format>
        <dc:type rdf:resource="http://purl.org/dc/dcmitype/StillImage" />
        <dc:title />
      </cc:Work>
    </rdf:RDF>
  </metadata>
  <sodipodi:namedview pagecolor="#ffffff" bordercolor="#666666" borderopacity="1" objecttolerance="10" gridtolerance="10" guidetolerance="10" inkscape:pageopacity="0" inkscape:pageshadow="2" inkscape:window-width="640" inkscape:window-height="480" id="namedview219" showgrid="false" fit-margin-top="0" fit-margin-left="0" fit-margin-right="0" fit-margin-bottom="0" inkscape:zoom="2.331" inkscape:cx="207.5" inkscape:cy="149.5" inkscape:current-layer="o45N4aQUgNGyd4wnvegB_top" />
  <defs id="defs204">
    <style id="style2">.o45N4aQUgNGyd4wnvegB_fr4 {color: #666666;}
.o45N4aQUgNGyd4wnvegB_cu {color: #cccccc;}
.o45N4aQUgNGyd4wnvegB_cf {color: #cc9933;}
.o45N4aQUgNGyd4wnvegB_sm {color: #004200; opacity: 0.75;}
.o45N4aQUgNGyd4wnvegB_ss {color: #ffffff;}
.o45N4aQUgNGyd4wnvegB_sp {color: #999999;}
.o45N4aQUgNGyd4wnvegB_out {color: #000000;}</style>
    <circle cx="0" cy="0" r="1050" id="XqhRVeEa3owaB9HsTrbK_pad-11" />
    <rect x="-1050" y="-1050" width="2100" height="2100" rx="1050" ry="1050" id="XqhRVeEa3owaB9HsTrbK_pad-12" />
    <rect x="-1700" y="-1050" width="3400" height="2100" id="XqhRVeEa3owaB9HsTrbK_pad-13" />
    <rect x="-1290" y="-1000" width="2580" height="2000" id="XqhRVeEa3owaB9HsTrbK_pad-14" />
    <rect x="-950" y="-825" width="1900" height="1650" id="XqhRVeEa3owaB9HsTrbK_pad-15" />
    <rect x="-950" y="-950" width="1900" height="1900" id="XqhRVeEa3owaB9HsTrbK_pad-16" />
    <rect x="-850" y="-950" width="1700" height="1900" id="XqhRVeEa3owaB9HsTrbK_pad-17" />
    <rect x="-950" y="-850" width="1900" height="1700" id="XqhRVeEa3owaB9HsTrbK_pad-18" />
    <rect x="-1075" y="-1100" width="2150" height="2200" id="XqhRVeEa3owaB9HsTrbK_pad-19" />
    <circle cx="0" cy="0" r="1300" id="XqhRVeEa3owaB9HsTrbK_pad-20" />
    <rect x="-875" y="-875" width="1750" height="1750" id="XqhRVeEa3owaB9HsTrbK_pad-21" />
    <g id="o45N4aQUgNGyd4wnvegB_top_silkscreen">
      <path d="m 172000,-118200 h 600 v -100 l 0,-100 -100,-100 0,0 -200,0 h 0 l -200,0 0,0 -100,100 0,100 v 100 m 600,-500 v -400 l -600,200 m 300,3000 0,-100 0,0 -100,0 h -100 l 0,0 -100,0 0,100 v 200 h 600 v -200 l 0,-100 -100,0 0,0 h -100 l 0,0 -100,0 0,100 v 200 m -300,-900 v 300 m 0,-100 h 600 l -100,0 0,100 -100,0 m 200,3500 -600,-200 600,-200 m -500,-500 -100,0 0,100 v 0 l 0,100 100,100 0,0 200,0 h 0 l 200,0 0,0 100,-100 0,-100 v 0 l 0,-100 -100,0 m -400,-600 -100,0 0,100 v 0 l 0,100 100,100 0,0 200,0 h 0 l 200,0 0,0 100,-100 0,-100 v 0 l 0,-100 -100,0 m 100,3600 0,100 v 100 l 0,100 -100,0 0,0 -200,100 h 0 l -200,-100 0,0 -100,0 0,-100 v -100 l 0,-100 100,0 h 200 v 100 m -300,-400 h 600 l -600,-300 h 600 m -600,-300 h 600 v -100 l 0,-100 -100,-100 0,0 -200,0 h 0 l -200,0 0,0 -100,100 0,100 v 100 m -700,4000 h -600 m 200,0 v 300 m 400,0 h -600 m 600,300 h -600 l 400,200 -400,200 h 600 m -100,200 100,100 v 200 l -100,0 0,100 -100,0 h 0 l -100,0 0,-100 0,0 -100,-100 0,-100 0,0 -100,-100 h 0 l -100,100 0,0 0,100 v 100 l 0,100 m 500,500 100,-100 v -100 l -100,-100 0,0 h -300 l 0,0 0,100 v 100 l 0,100 0,0 h 100 l 100,-300 m -200,600 h 400 m -400,0 0,0 0,0 v 100 l 0,100 0,0 h 400 m -100,300 100,0 v 100 l -100,100 0,0 h -100 l 0,0 0,-100 v 0 l -100,-100 0,0 h -100 l 0,0 0,100 v 0 l 0,100 m 400,400 -100,-100 0,0 -100,0 h -100 l -100,0 0,0 0,100 v 100 l 0,0 0,0 100,100 h 100 l 100,-100 0,0 100,0 v -100 m 0,400 h -400 m 100,0 -100,100 0,0 0,0 v 100 m 700,-3000 600,200 -600,200 m 600,500 v -400 m 0,200 h -600 l 100,0 0,-100 100,-100 m 300,600 100,100 0,-100 0,0 -100,0 h 100 m 0,600 v -300 m 0,200 h -600 l 100,-100 0,0 100,-100 m 15200,-9200 600,200 -600,200 m 600,200 h -400 m -200,0 0,0 100,0 -100,0 0,0 h 100 m 100,300 h 400 m -300,0 -100,0 0,100 v 100 l 0,0 100,100 h 300 m -12100,-9600 v 600 h 200 l 0,0 100,-100 0,0 100,-200 v 0 l -100,-200 0,0 -100,-100 0,0 h -200 m 900,600 h -100 l -100,0 0,-100 -100,0 0,-200 v -200 l 0,0 0,-100 100,0 h 100 l 100,0 0,100 0,0 v 200 l 0,0 0,0 -100,100 h -100 l -100,-100 0,0 0,0 m 2000,-400 v 600 h 100 l 100,0 0,0 100,-100 0,-100 v -100 l 0,-100 -100,-100 0,0 -100,-100 h -100 m 500,600 h 400 l -200,-200 h 100 l 0,0 0,0 100,-100 v -100 l -100,-100 0,0 0,-100 h -200 l -100,100 0,0 m 2000,200 h 300 m -300,-200 200,600 200,-600 m 400,600 h -200 l -100,-300 100,0 0,100 h 200 l 0,-100 0,0 100,0 v -200 l -100,0 0,-100 0,0 h -200 l 0,0 -100,100 m 2100,100 h 200 m -300,-200 200,600 200,-600 m 500,400 v -400 m -200,600 -100,-400 h 300 m 1600,0 h 300 m -300,-200 200,600 200,-600 m 100,600 h 400 l -200,-200 h 100 l 0,-100 100,0 0,0 v -200 l 0,0 -100,-100 0,0 h -200 l -100,0 0,100 m 1400,-500 200,200 m -100,-400 -300,600 600,-300 m -300,500 v 0 l 100,100 100,100 0,0 h 100 l 0,0 100,0 0,-100 v -500 l 300,300 m -900,1000 v 300 m 100,-300 -600,200 600,200 m 0,500 v -400 m 0,200 h -600 l 100,-100 100,0 0,-100 m 300,2000 v 300 m 100,-400 -600,200 600,200 m -600,300 v 100 l 100,100 0,0 0,0 200,0 h 100 l 100,0 100,0 0,0 0,-100 v -100 l 0,0 0,0 -100,-100 -100,0 h -100 l -200,0 0,100 0,0 -100,0 m 100,1800 0,0 v -100 l 0,-100 100,0 0,-100 200,0 h 0 l 200,0 0,100 100,0 0,100 v 100 l 0,0 -100,100 h -200 v -100 m 300,300 h -600 l 600,400 h -600 m 600,300 h -600 v 100 l 0,100 100,0 0,100 200,0 h 0 l 200,0 0,-100 100,0 0,-100 v -100 m -14100,16560 0,30 h -100 l -100,-30 -100,-60 0,-60 0,-110 v -90 l 0,-110 0,-60 100,-50 100,-30 h 0 l 100,30 100,20 v 200 h -200 m 400,-250 v 600 l 400,-600 v 600 m 200,-600 v 600 h 200 l 100,-30 0,-60 100,-60 0,-110 v -90 l 0,-110 -100,-60 0,-50 -100,-30 h -200 m -900,3110 0,30 h -100 l -100,-30 -100,-60 0,-60 0,-110 v -90 l 0,-110 0,-60 100,-50 100,-30 h 0 l 100,30 100,20 v 200 h -200 m 400,-250 v 600 l 400,-600 v 600 m 200,-600 v 600 h 200 l 100,-30 0,-60 100,-60 0,-110 v -90 l 0,-110 -100,-60 0,-50 -100,-30 h -200 m -800,2540 -200,280 m -200,-280 v 600 h 300 l 0,-30 100,-30 0,-60 v -80 l 0,-60 -100,-30 0,-30 h -300 m 600,320 400,-600 m 0,600 -400,-600 m 600,0 v 600 h 200 l 0,-30 100,-60 0,-60 100,-110 v -90 l -100,-110 0,-60 -100,-50 0,-30 h -200 m -1200,3140 h 400 m -200,-600 v 600 m 300,0 400,-600 m 0,600 -400,-600 m 600,0 v 600 h 200 l 100,-30 0,-60 100,-60 0,-110 v -90 l 0,-110 -100,-60 0,-50 -100,-30 h -200 m -1100,3010 200,-600 200,600 m 500,-540 0,-30 -100,-30 h 0 l -100,30 -100,60 0,50 0,120 v 80 l 0,120 0,50 100,60 100,30 h 0 l 100,-30 0,-30 m 600,-480 0,-30 -100,-30 h 0 l -100,30 -100,60 0,50 0,120 v 80 l 0,120 0,50 100,60 100,30 h 0 l 100,-30 0,-30" id="path15" inkscape:connector-curvature="0" style="fill:none;stroke-width:100" />
      <path d="m 186400,-104700 -100,100 m -5000,-5200 -200,200 m -4900,4900 200,-200 m 4900,5310 200,-230 m 4900,-4880 -200,-200 m -4900,5310 -200,-230 m -4900,-4880 200,200 m 4900,-5300 200,200 m 4800,5000 1000,1100" id="path17" inkscape:connector-curvature="0" style="fill:none;stroke-width:150" />
      <path d="m 182800,-121800 h -6100 v 3600 h 6100 v -3600 m -6000,36360 h 6100 v -3620 h -6100 v 3620 m 10500,-12770 h -1000 m 0,-1700 h 1000 m 2200,7430 v 1700 m 0,0 h -4100 m 4100,-1700 h -4100 m 4100,2090 v 1700 m 0,0 h -4100 m 4100,-1700 h -4100 m -3500,-25010 v 1200 m 1700,0 v -1200 m 2900,20840 h -1200 m 0,1760 h 1200 m -7100,3510 h 1200 m 0,-1760 h -1200 m 7900,-4950 h -1000 m 0,-1700 h 1000 m -6200,4190 h -1000 m 0,-1700 h 1000 m 700,-2460 h -1100 m 1100,1900 h -1100 m 3300,-1850 v 1800 m -13200,8400 v -60 h 2100 v 60 h -2100 m 0,1000 v 1060 h 1000 m 6900,-30140 v 1200 m 1800,0 v -1200 m -4800,6600 h -1000 m 0,-1700 h 1000 m 1800,-3700 v -1200 m -1800,0 v 1200" id="path19" inkscape:connector-curvature="0" style="fill:none;stroke-width:120" />
      <path d="m 180900,-105700 -700,700 m 1400,100 v -100 l -100,-100 0,-100 -200,-100 h -100 l -100,100 -200,100 -100,100 -100,200 0,100 v 100 l 100,100 0,100 200,100 h 0 m 1300,0 -400,-400 m 200,200 -700,700 100,-200 v -100 l -100,-100 m -3000,-16200 200,-100 h 200 l 100,100 100,0 0,100 v 100 l 0,100 -100,100 -100,0 -200,100 -100,0 0,100 -100,0 v 100 l 100,100 0,100 100,0 h 300 l 100,0 m 300,0 300,-1000 200,700 200,-700 200,1000 m 900,-1000 h -600 m 300,0 v 1000 l -100,-100 -100,-100 -100,-100 m -5200,2000 -300,300 m -200,-300 v 800 h 300 l 100,-100 0,0 100,-100 v -100 l -100,-100 0,0 -100,-100 h -300 m 1100,-300 0,0 h -200 l -100,0 0,100 v 300 l 0,100 100,0 h 200 l 0,0 100,-100 v -100 l -400,-100 m 700,-200 100,0 h 100 l 100,0 0,100 v 0 l 0,100 -100,0 h -100 l -100,100 0,0 v 100 l 0,100 100,0 h 100 l 100,0 m 700,-500 -100,0 h -200 l 0,0 -100,100 v 300 l 100,100 0,0 h 200 l 100,0 0,-100 v -100 l -400,-100 m 600,300 h 300 m -200,300 v -700 l 100,-100 100,0 h 0 m 700,30150 100,-50 h 300 l 100,50 0,40 100,100 v 90 l -100,100 0,50 -100,40 -200,50 -100,50 -100,50 0,90 v 100 l 0,90 100,50 100,50 h 200 l 200,-50 m 300,50 200,-1000 200,710 200,-710 300,1000 m 300,-100 0,50 100,50 h 300 l 100,-50 0,-50 100,-90 v -100 l -100,-140 -600,-570 h 700 m 2500,1690 -100,-40 -100,-40 h -100 l -100,40 -100,80 0,70 0,160 v 110 l 0,150 0,80 100,70 100,40 h 100 l 100,-40 100,-30 m 400,-730 -100,40 0,40 0,70 v 230 l 0,80 0,40 100,40 h 100 l 100,-40 0,-40 100,-80 v -230 l -100,-70 0,-40 -100,-40 h -100 m 600,540 v -540 m 0,460 100,40 0,40 h 200 l 0,-40 100,-80 v -420 m 200,540 h 300 m -200,-540 v 690 l 100,70 100,40 h 0 m 300,-800 v 540 m 0,260 0,-40 0,-30 0,30 0,40 v -70 m 700,-190 v -650 l 0,-80 0,-40 -100,-30 h -100 l -100,30 m 300,270 0,-40 h -200 l -100,40 0,40 -100,70 v 230 l 100,80 0,40 100,40 h 200 l 0,-40 m 900,-15310 -100,-100 -100,0 h -100 l -100,0 -100,100 -100,100 0,200 v 100 l 0,200 100,100 100,100 100,100 h 100 l 100,-100 100,0 m 900,-900 h -500 m 300,0 v 1000 l -100,-200 -100,-100 -100,0 m -1500,8150 v 1000 h 200 l 200,-40 100,-100 0,-90 100,-200 v -140 l -100,-190 0,-90 -100,-100 -200,-50 h -200 m 1500,0 h -600 m 300,0 v 1000 l -100,-140 -100,-90 -100,-50 m -1000,1320 v 1000 h 200 l 200,-50 0,-100 100,-90 0,-190 v -150 l 0,-190 -100,-90 0,-100 -200,-40 h -200 m 900,900 100,50 100,50 h 200 l 100,-50 0,-50 100,-100 v -90 l -100,-140 -500,-570 h 600 m -5100,-22290 -400,500 m -200,-500 v 1000 h 400 l 100,0 0,-100 100,-100 v -100 l -100,-100 0,0 -100,-100 h -400 m 1500,-500 h -600 m 300,0 v 1000 l -100,-100 -100,-100 -100,-100 m 5800,17520 -400,480 m -200,-480 v 1000 h 400 l 100,-50 0,-40 100,-100 v -140 l -100,-100 0,-50 -100,-40 h -400 m 900,430 100,40 100,50 h 200 l 100,-50 100,-40 0,-100 v -90 l 0,-150 -600,-570 h 600 m -6900,3430 -300,480 m -200,-480 v 1000 h 400 l 0,-50 100,-50 0,-90 v -140 l 0,-100 -100,-50 0,-40 h -400 m 900,520 h 600 l -300,-380 h 100 l 100,-50 0,-50 100,-90 v -240 l -100,-90 0,-50 -100,-50 h -300 l -100,50 0,50 m 4200,-5110 0,-50 -200,-50 h 0 l -200,50 -100,100 0,90 -100,190 v 150 l 100,190 0,90 100,100 200,40 h 0 l 200,-40 0,-50 m 900,-240 v -670 m -200,1050 -300,-710 h 600 m -9200,2250 -100,-50 -100,-50 h -100 l -100,50 -100,100 -100,90 0,190 v 150 l 0,190 100,90 100,100 100,40 h 100 l 100,-40 100,-50 m 900,90 h -500 l 0,-470 0,50 100,40 h 200 l 100,-40 100,-50 0,-100 v -240 l 0,-90 -100,-50 -100,-50 h -200 l -100,50 0,50 m 1200,-5330 v -480 m -300,1000 300,-520 400,520 m 800,-1000 h -500 m 200,0 v 1000 l 0,-140 -100,-100 -100,-50 m -7800,10230 v 480 m 300,-570 -1000,330 1000,330 m 0,340 h -1000 l 1000,570 h -1000 m 0,330 v 570 m 1000,-280 h -1000 m 6400,-26360 -300,500 m -300,-500 v 1000 h 400 l 100,-100 100,0 0,-100 v -100 l 0,-100 -100,-100 -100,0 h -400 m 1500,200 v -700 m -300,1000 -200,-700 h 600 m -6200,3500 0,0 -200,-100 h -100 l -100,100 -100,100 0,100 -100,100 v 200 l 100,200 0,100 100,100 100,0 h 100 l 200,0 0,-100 m 400,0 100,100 100,0 h 200 l 100,0 0,-100 100,-100 v -100 l -100,-100 -500,-600 h 600 m 1200,-3700 -300,500 m -200,-500 v 1000 h 300 l 100,-100 100,0 0,-100 v -100 l 0,-100 -100,-100 -100,0 h -300 m 1400,500 h -400 l -100,-500 100,100 100,0 h 200 l 100,0 0,-100 100,-100 v -200 l -100,-100 0,-100 -100,0 h -200 l -100,0 -100,100" id="path21" inkscape:connector-curvature="0" style="fill:none;stroke-width:150" />
    </g>
    <g id="o45N4aQUgNGyd4wnvegB_top_soldermask">
      <use xlink:href="#XqhRVeEa3owaB9HsTrbK_pad-11" x="1.709e+05" y="-1.111e+05" id="use24" width="100%" height="100%" />
      <use xlink:href="#XqhRVeEa3owaB9HsTrbK_pad-12" x="1.709e+05" y="-1.136e+05" id="use26" width="100%" height="100%" />
      <use xlink:href="#XqhRVeEa3owaB9HsTrbK_pad-12" x="1.709e+05" y="-1.161e+05" id="use28" width="100%" height="100%" />
      <use xlink:href="#XqhRVeEa3owaB9HsTrbK_pad-12" x="1.709e+05" y="-1.187e+05" id="use30" width="100%" height="100%" />
      <use xlink:href="#XqhRVeEa3owaB9HsTrbK_pad-13" x="1.714e+05" y="-89281" id="use32" width="100%" height="100%" />
      <use xlink:href="#XqhRVeEa3owaB9HsTrbK_pad-13" x="1.714e+05" y="-94361" id="use34" width="100%" height="100%" />
      <use xlink:href="#XqhRVeEa3owaB9HsTrbK_pad-13" x="1.714e+05" y="-99441" id="use36" width="100%" height="100%" />
      <use xlink:href="#XqhRVeEa3owaB9HsTrbK_pad-13" x="1.714e+05" y="-91821" id="use38" width="100%" height="100%" />
      <use xlink:href="#XqhRVeEa3owaB9HsTrbK_pad-13" x="1.714e+05" y="-96901" id="use40" width="100%" height="100%" />
      <path d="m 186600,-102600 700,-700 -1400,-1400 -700,600 1400,1500 v 0" id="path42" inkscape:connector-curvature="0" />
      <path d="m 186100,-102100 700,-600 -1500,-1500 -600,700 1400,1400 v 0" id="path44" inkscape:connector-curvature="0" />
      <path d="m 185500,-101500 700,-700 -1400,-1400 -700,700 1400,1400 v 0" id="path46" inkscape:connector-curvature="0" />
      <path d="m 185000,-100900 600,-700 -1400,-1400 -700,600 1500,1500 v 0" id="path48" inkscape:connector-curvature="0" />
      <path d="m 184400,-100400 700,-700 -1500,-1400 -600,700 1400,1400 v 0" id="path50" inkscape:connector-curvature="0" />
      <path d="m 183800,-99820 700,-680 -1400,-1400 -700,700 1400,1380 v 0" id="path52" inkscape:connector-curvature="0" />
      <path d="m 183300,-99250 600,-670 -1400,-1380 -700,600 1500,1450 v 0" id="path54" inkscape:connector-curvature="0" />
      <path d="m 182700,-98680 700,-680 -1500,-1440 -600,700 1400,1420 v 0" id="path56" inkscape:connector-curvature="0" />
      <path d="m 179200,-99360 700,680 1400,-1420 -700,-700 -1400,1440 v 0" id="path58" inkscape:connector-curvature="0" />
      <path d="m 178700,-99920 600,670 1400,-1450 -600,-600 -1400,1380 v 0" id="path60" inkscape:connector-curvature="0" />
      <path d="m 178100,-100500 700,680 1400,-1380 -700,-700 -1400,1400 v 0" id="path62" inkscape:connector-curvature="0" />
      <path d="m 177500,-101100 700,700 1400,-1400 -700,-700 -1400,1400 v 0" id="path64" inkscape:connector-curvature="0" />
      <path d="m 177000,-101600 600,700 1400,-1500 -600,-600 -1400,1400 v 0" id="path66" inkscape:connector-curvature="0" />
      <path d="m 176400,-102200 700,700 1400,-1400 -700,-700 -1400,1400 v 0" id="path68" inkscape:connector-curvature="0" />
      <path d="m 175800,-102700 700,600 1400,-1400 -700,-700 -1400,1500 v 0" id="path70" inkscape:connector-curvature="0" />
      <path d="m 175300,-103300 600,700 1500,-1500 -700,-600 -1400,1400 v 0" id="path72" inkscape:connector-curvature="0" />
      <path d="m 176700,-104700 700,-700 -1500,-1400 -600,700 1400,1400 v 0" id="path74" inkscape:connector-curvature="0" />
      <path d="m 177200,-105300 700,-600 -1400,-1400 -700,600 1400,1400 v 0" id="path76" inkscape:connector-curvature="0" />
      <path d="m 177800,-105800 700,-700 -1400,-1400 -700,700 1400,1400 v 0" id="path78" inkscape:connector-curvature="0" />
      <path d="m 178400,-106400 600,-700 -1400,-1400 -600,700 1400,1400 v 0" id="path80" inkscape:connector-curvature="0" />
      <path d="m 178900,-107000 700,-600 -1400,-1400 -700,600 1400,1400 v 0" id="path82" inkscape:connector-curvature="0" />
      <path d="m 179500,-107500 700,-700 -1400,-1400 -700,700 1400,1400 v 0" id="path84" inkscape:connector-curvature="0" />
      <path d="m 180100,-108100 600,-700 -1400,-1400 -600,700 1400,1400 v 0" id="path86" inkscape:connector-curvature="0" />
      <path d="m 180600,-108700 700,-600 -1400,-1400 -700,600 1400,1400 v 0" id="path88" inkscape:connector-curvature="0" />
      <path d="m 181300,-109300 600,600 1500,-1400 -700,-600 -1400,1400 v 0" id="path90" inkscape:connector-curvature="0" />
      <path d="m 181800,-108800 700,700 1400,-1400 -600,-700 -1500,1400 v 0" id="path92" inkscape:connector-curvature="0" />
      <path d="m 182400,-108200 700,700 1400,-1400 -700,-700 -1400,1400 v 0" id="path94" inkscape:connector-curvature="0" />
      <path d="m 183000,-107600 600,600 1500,-1400 -700,-600 -1400,1400 v 0" id="path96" inkscape:connector-curvature="0" />
      <path d="m 183500,-107100 700,700 1400,-1400 -600,-700 -1500,1400 v 0" id="path98" inkscape:connector-curvature="0" />
      <path d="m 184100,-106500 700,700 1400,-1400 -700,-700 -1400,1400 v 0" id="path100" inkscape:connector-curvature="0" />
      <path d="m 184700,-105900 600,600 1500,-1400 -700,-600 -1400,1400 v 0" id="path102" inkscape:connector-curvature="0" />
      <path d="m 185200,-105400 700,700 1400,-1400 -700,-700 -1400,1400 v 0" id="path104" inkscape:connector-curvature="0" />
      <use xlink:href="#XqhRVeEa3owaB9HsTrbK_pad-11" x="1.887e+05" y="-1.136e+05" id="use106" width="100%" height="100%" />
      <use xlink:href="#XqhRVeEa3owaB9HsTrbK_pad-12" x="1.887e+05" y="-1.161e+05" id="use108" width="100%" height="100%" />
      <use xlink:href="#XqhRVeEa3owaB9HsTrbK_pad-12" x="1.887e+05" y="-1.187e+05" id="use110" width="100%" height="100%" />
      <use xlink:href="#XqhRVeEa3owaB9HsTrbK_pad-12" x="1.887e+05" y="-1.212e+05" id="use112" width="100%" height="100%" />
      <use xlink:href="#XqhRVeEa3owaB9HsTrbK_pad-11" x="188722" y="-1.238e+05" id="use114" width="100%" height="100%" />
      <use xlink:href="#XqhRVeEa3owaB9HsTrbK_pad-12" x="186182" y="-1.238e+05" id="use116" width="100%" height="100%" />
      <use xlink:href="#XqhRVeEa3owaB9HsTrbK_pad-12" x="183642" y="-1.238e+05" id="use118" width="100%" height="100%" />
      <use xlink:href="#XqhRVeEa3owaB9HsTrbK_pad-12" x="181102" y="-1.238e+05" id="use120" width="100%" height="100%" />
      <use xlink:href="#XqhRVeEa3owaB9HsTrbK_pad-12" x="178562" y="-1.238e+05" id="use122" width="100%" height="100%" />
      <use xlink:href="#XqhRVeEa3owaB9HsTrbK_pad-12" x="176022" y="-1.238e+05" id="use124" width="100%" height="100%" />
      <use xlink:href="#XqhRVeEa3owaB9HsTrbK_pad-14" x="1.844e+05" y="-120015" id="use126" width="100%" height="100%" />
      <use xlink:href="#XqhRVeEa3owaB9HsTrbK_pad-14" x="1.752e+05" y="-120015" id="use128" width="100%" height="100%" />
      <use xlink:href="#XqhRVeEa3owaB9HsTrbK_pad-14" x="175242" y="-87249" id="use130" width="100%" height="100%" />
      <use xlink:href="#XqhRVeEa3owaB9HsTrbK_pad-14" x="184422" y="-87249" id="use132" width="100%" height="100%" />
      <use xlink:href="#XqhRVeEa3owaB9HsTrbK_pad-15" x="1.855e+05" y="-99060" id="use134" width="100%" height="100%" />
      <use xlink:href="#XqhRVeEa3owaB9HsTrbK_pad-15" x="1.88e+05" y="-99060" id="use136" width="100%" height="100%" />
      <use xlink:href="#XqhRVeEa3owaB9HsTrbK_pad-16" x="1.854e+05" y="-9.163e+04" id="use138" width="100%" height="100%" />
      <use xlink:href="#XqhRVeEa3owaB9HsTrbK_pad-16" x="1.887e+05" y="-9.163e+04" id="use140" width="100%" height="100%" />
      <use xlink:href="#XqhRVeEa3owaB9HsTrbK_pad-16" x="1.854e+05" y="-89535" id="use142" width="100%" height="100%" />
      <use xlink:href="#XqhRVeEa3owaB9HsTrbK_pad-16" x="1.887e+05" y="-89535" id="use144" width="100%" height="100%" />
      <use xlink:href="#XqhRVeEa3owaB9HsTrbK_pad-17" x="182753" y="-1.135e+05" id="use146" width="100%" height="100%" />
      <use xlink:href="#XqhRVeEa3owaB9HsTrbK_pad-17" x="182753" y="-1.162e+05" id="use148" width="100%" height="100%" />
      <use xlink:href="#XqhRVeEa3owaB9HsTrbK_pad-18" x="1.845e+05" y="-9.368e+04" id="use150" width="100%" height="100%" />
      <use xlink:href="#XqhRVeEa3owaB9HsTrbK_pad-18" x="1.872e+05" y="-9.368e+04" id="use152" width="100%" height="100%" />
      <use xlink:href="#XqhRVeEa3owaB9HsTrbK_pad-18" x="181309" y="-90170" id="use154" width="100%" height="100%" />
      <use xlink:href="#XqhRVeEa3owaB9HsTrbK_pad-18" x="178609" y="-90170" id="use156" width="100%" height="100%" />
      <use xlink:href="#XqhRVeEa3owaB9HsTrbK_pad-15" x="1.855e+05" y="-9.685e+04" id="use158" width="100%" height="100%" />
      <use xlink:href="#XqhRVeEa3owaB9HsTrbK_pad-15" x="1.88e+05" y="-9.685e+04" id="use160" width="100%" height="100%" />
      <use xlink:href="#XqhRVeEa3owaB9HsTrbK_pad-15" x="1.794e+05" y="-94361" id="use162" width="100%" height="100%" />
      <use xlink:href="#XqhRVeEa3owaB9HsTrbK_pad-15" x="1.819e+05" y="-94361" id="use164" width="100%" height="100%" />
      <use xlink:href="#XqhRVeEa3owaB9HsTrbK_pad-19" x="1.829e+05" y="-9.672e+04" id="use166" width="100%" height="100%" />
      <use xlink:href="#XqhRVeEa3owaB9HsTrbK_pad-19" x="1.796e+05" y="-9.672e+04" id="use168" width="100%" height="100%" />
      <use xlink:href="#XqhRVeEa3owaB9HsTrbK_pad-20" x="188087" y="-86741" id="use170" width="100%" height="100%" />
      <use xlink:href="#XqhRVeEa3owaB9HsTrbK_pad-20" x="171958" y="-123190" id="use172" width="100%" height="100%" />
      <use xlink:href="#XqhRVeEa3owaB9HsTrbK_pad-21" x="171831" y="-8.642e+04" id="use174" width="100%" height="100%" />
      <use xlink:href="#XqhRVeEa3owaB9HsTrbK_pad-17" x="179578" y="-1.135e+05" id="use176" width="100%" height="100%" />
      <use xlink:href="#XqhRVeEa3owaB9HsTrbK_pad-17" x="179578" y="-1.162e+05" id="use178" width="100%" height="100%" />
      <use xlink:href="#XqhRVeEa3owaB9HsTrbK_pad-15" x="1.739e+05" y="-1.098e+05" id="use180" width="100%" height="100%" />
      <use xlink:href="#XqhRVeEa3owaB9HsTrbK_pad-15" x="1.764e+05" y="-1.098e+05" id="use182" width="100%" height="100%" />
      <use xlink:href="#XqhRVeEa3owaB9HsTrbK_pad-17" x="1.766e+05" y="-1.162e+05" id="use184" width="100%" height="100%" />
      <use xlink:href="#XqhRVeEa3owaB9HsTrbK_pad-17" x="1.766e+05" y="-1.135e+05" id="use186" width="100%" height="100%" />
    </g>
    <clipPath id="o45N4aQUgNGyd4wnvegB_top_outline">
      <path d="m 170000,-125000 v 40000 h 20000 v -40000 h -20000" id="path189" inkscape:connector-curvature="0" style="fill:none;stroke-width:150" />
    </clipPath>
    <mask id="o45N4aQUgNGyd4wnvegB_top_mech-mask">
      <g id="g194" style="fill:#000000;stroke:#000000">
        <rect x="170000" y="-125000" width="20000" height="40000" id="rect192" style="fill:#ffffff" />
      </g>
    </mask>
    <mask id="o45N4aQUgNGyd4wnvegB_top_sm-mask">
      <g id="g201" style="fill:#000000;stroke:#000000">
        <rect x="170000" y="-125000" width="20000" height="40000" id="rect197" style="fill:#ffffff" />
        <use xlink:href="#o45N4aQUgNGyd4wnvegB_top_soldermask" id="use199" x="0" y="0" width="100%" height="100%" />
      </g>
    </mask>
  </defs>
  <g transform="matrix(0,5,5,0,795000,-975000)" id="g216" sodipodi:insensitive="true">
    <g mask="url(#o45N4aQUgNGyd4wnvegB_top_mech-mask)" clip-path="url(#o45N4aQUgNGyd4wnvegB_top_outline)" id="g214">
      <rect x="170000" y="-125000" width="20000" height="40000" class="o45N4aQUgNGyd4wnvegB_fr4" id="rect206" style="color:#666666;fill:currentColor" />
      <g mask="url(#o45N4aQUgNGyd4wnvegB_top_sm-mask)" id="g212">
        <rect x="170000" y="-125000" width="20000" height="40000" class="o45N4aQUgNGyd4wnvegB_sm" id="rect208" style="color:#004200;opacity:0.75;fill:currentColor" />
        <use xlink:href="#o45N4aQUgNGyd4wnvegB_top_silkscreen" class="o45N4aQUgNGyd4wnvegB_ss" id="use210" style="color:#ffffff;fill:currentColor;stroke:currentColor" x="0" y="0" width="100%" height="100%" />
      </g>
    </g>
  </g>
  <g aria-label="100kΩ" style="font-style:normal;font-variant:normal;font-weight:bold;font-stretch:normal;font-size:5292px;line-height:1.2;font-family:sans-serif;-inkscape-font-specification:'sans-serif Bold';letter-spacing:0px;word-spacing:0px;fill:#ffff00;fill-opacity:1;stroke:none;stroke-width:0" id="text1030">
    <path d="m 212100,-90840 h 900 v -2490 l -900,180 v -670 l 900,-190 h 900 v 3170 h 900 v 690 h -2700 z" style="fill:#ffff00;stroke-width:0" id="path1092" inkscape:connector-curvature="0" />
    <path d="m 217600,-92080 q 0,-730 -100,-1020 -200,-300 -500,-300 -300,0 -400,300 -200,290 -200,1020 0,730 200,1030 100,300 400,300 300,0 500,-300 100,-300 100,-1030 z m 1000,0 q 0,960 -400,1490 -400,510 -1200,510 -700,0 -1200,-510 -400,-530 -400,-1490 0,-960 400,-1480 500,-520 1200,-520 800,0 1200,520 400,520 400,1480 z" style="fill:#ffff00;stroke-width:0" id="path1094" inkscape:connector-curvature="0" />
    <path d="m 221300,-92080 q 0,-730 -100,-1020 -200,-300 -500,-300 -300,0 -500,300 -100,290 -100,1020 0,730 100,1030 200,300 500,300 300,0 500,-300 100,-300 100,-1030 z m 1000,0 q 0,960 -400,1490 -400,510 -1200,510 -800,0 -1200,-510 -400,-530 -400,-1490 0,-960 400,-1480 400,-520 1200,-520 800,0 1200,520 400,520 400,1480 z" style="fill:#ffff00;stroke-width:0" id="path1096" inkscape:connector-curvature="0" />
    <path d="m 223000,-94170 h 900 v 2190 l 1100,-1060 h 1100 l -1500,1320 1600,1570 h -1200 l -1100,-1210 v 1210 h -900 z" style="fill:#ffff00;stroke-width:0" id="path1098" inkscape:connector-curvature="0" />
    <path d="m 228300,-94080 q 900,0 1500,530 500,540 500,1340 0,900 -700,1310 h 800 v 750 h -1700 v -810 q 0,-50 100,-130 500,-450 500,-1100 0,-500 -300,-830 -200,-340 -700,-340 -400,0 -700,340 -200,330 -200,830 0,650 400,1100 100,80 200,130 v 810 h -1800 v -750 h 800 q -700,-410 -700,-1310 0,-800 600,-1340 500,-530 1400,-530 z" style="fill:#ffff00;stroke-width:0" id="path1100" inkscape:connector-curvature="0" />
  </g>
  <g aria-label="470kΩ" style="font-style:normal;font-variant:normal;font-weight:bold;font-stretch:normal;font-size:5292px;line-height:1.2;font-family:sans-serif;-inkscape-font-specification:'sans-serif Bold';letter-spacing:0px;word-spacing:0px;fill:#ffff00;fill-opacity:1;stroke:none;stroke-width:0" id="text1034">
    <path d="m 213400,-78070 -1000,1620 h 1000 z m -100,-820 h 1100 v 2440 h 500 v 720 h -500 v 700 h -1000 v -700 h -1700 v -860 z" style="fill:#ffff00;stroke-width:0" id="path1103" inkscape:connector-curvature="0" />
    <path d="m 215500,-78890 h 2900 v 560 l -1500,3300 h -900 l 1400,-3130 h -1900 z" style="fill:#ffff00;stroke-width:0" id="path1105" inkscape:connector-curvature="0" />
    <path d="m 221300,-76960 q 0,-730 -100,-1020 -200,-300 -500,-300 -300,0 -500,300 -100,290 -100,1020 0,730 100,1030 200,300 500,300 300,0 500,-300 100,-300 100,-1030 z m 1000,0 q 0,960 -400,1490 -400,510 -1200,510 -800,0 -1200,-510 -400,-530 -400,-1490 0,-960 400,-1480 400,-520 1200,-520 800,0 1200,520 400,520 400,1480 z" style="fill:#ffff00;stroke-width:0" id="path1107" inkscape:connector-curvature="0" />
    <path d="m 223000,-79050 h 900 v 2190 l 1100,-1060 h 1100 l -1500,1320 1600,1570 h -1200 l -1100,-1210 v 1210 h -900 z" style="fill:#ffff00;stroke-width:0" id="path1109" inkscape:connector-curvature="0" />
    <path d="m 228300,-78960 q 900,0 1500,530 500,540 500,1340 0,900 -700,1310 h 800 v 750 h -1700 v -810 q 0,-50 100,-130 500,-450 500,-1100 0,-500 -300,-830 -200,-340 -700,-340 -400,0 -700,340 -200,330 -200,830 0,650 400,1100 100,80 200,130 v 810 h -1800 v -750 h 800 q -700,-410 -700,-1310 0,-800 600,-1340 500,-530 1400,-530 z" style="fill:#ffff00;stroke-width:0" id="path1111" inkscape:connector-curvature="0" />
  </g>
  <g aria-label="10kΩ" style="font-style:normal;font-variant:normal;font-weight:bold;font-stretch:normal;font-size:5292px;line-height:1.2;font-family:sans-serif;-inkscape-font-specification:'sans-serif Bold';letter-spacing:0px;word-spacing:0px;fill:#ffff00;fill-opacity:1;stroke:none;stroke-width:0" id="text1038">
    <path d="m 216000,-59820 h 900 v -2490 l -900,180 v -670 l 900,-190 h 900 v 3170 h 900 v 690 h -2700 z" style="fill:#ffff00;stroke-width:0" id="path1114" inkscape:connector-curvature="0" />
    <path d="m 221500,-61060 q 0,-730 -100,-1020 -200,-300 -500,-300 -300,0 -400,300 -200,290 -200,1020 0,730 200,1030 100,300 400,300 300,0 500,-300 100,-300 100,-1030 z m 1000,0 q 0,960 -400,1490 -400,510 -1200,510 -700,0 -1200,-510 -400,-530 -400,-1490 0,-960 400,-1480 500,-520 1200,-520 800,0 1200,520 400,520 400,1480 z" style="fill:#ffff00;stroke-width:0" id="path1116" inkscape:connector-curvature="0" />
    <path d="m 223200,-63150 h 900 v 2190 l 1100,-1060 h 1100 l -1400,1320 1500,1570 h -1100 l -1200,-1210 v 1210 h -900 z" style="fill:#ffff00;stroke-width:0" id="path1118" inkscape:connector-curvature="0" />
    <path d="m 228500,-63060 q 1000,0 1500,530 500,540 500,1340 0,900 -700,1310 h 800 v 750 h -1700 v -810 q 100,-50 100,-130 500,-450 500,-1100 0,-500 -300,-830 -200,-340 -700,-340 -400,0 -700,340 -200,330 -200,830 0,650 400,1100 100,80 200,130 v 810 h -1800 v -750 h 800 q -700,-410 -700,-1310 0,-800 600,-1340 500,-530 1400,-530 z" style="fill:#ffff00;stroke-width:0" id="path1120" inkscape:connector-curvature="0" />
  </g>
  <g aria-label="100nF" transform="rotate(90)" style="font-style:normal;font-variant:normal;font-weight:bold;font-stretch:normal;font-size:5292px;line-height:1.2;font-family:sans-serif;-inkscape-font-specification:'sans-serif Bold';letter-spacing:0px;word-spacing:0px;fill:#ffff00;fill-opacity:1;stroke:none;stroke-width:0" id="text1042">
    <path d="m -107800,-244800 h 900 v -2500 l -900,200 v -700 l 900,-200 h 900 v 3200 h 900 v 700 h -2700 z" style="fill:#ffff00;stroke-width:0" id="path1123" inkscape:connector-curvature="0" />
    <path d="m -102300,-246000 q 0,-800 -100,-1100 -200,-200 -500,-200 -300,0 -400,200 -200,300 -200,1100 0,700 200,1000 100,300 400,300 300,0 500,-300 100,-300 100,-1000 z m 1000,0 q 0,900 -400,1500 -400,500 -1200,500 -700,0 -1200,-500 -400,-600 -400,-1500 0,-1000 400,-1500 500,-500 1200,-500 800,0 1200,500 400,500 400,1500 z" style="fill:#ffff00;stroke-width:0" id="path1125" inkscape:connector-curvature="0" />
    <path d="m -98600,-246000 q 0,-800 -140,-1100 -130,-200 -450,-200 -320,0 -460,200 -140,300 -140,1100 0,700 140,1000 140,300 460,300 310,0 450,-300 140,-300 140,-1000 z m 990,0 q 0,900 -410,1500 -410,500 -1170,500 -770,0 -1210,-500 -400,-600 -400,-1500 0,-1000 400,-1500 440,-500 1210,-500 760,0 1170,500 410,500 410,1500 z" style="fill:#ffff00;stroke-width:0" id="path1127" inkscape:connector-curvature="0" />
    <path d="m -94000,-245900 v 1800 h -930 v -300 -1000 q 0,-400 -20,-600 -10,-100 -60,-200 -50,-100 -140,-100 -100,-100 -210,-100 -290,0 -460,300 -160,200 -160,600 v 1400 h -930 v -2900 h 930 v 400 q 200,-200 440,-300 240,-200 520,-200 500,0 760,300 260,400 260,900 z" style="fill:#ffff00;stroke-width:0" id="path1129" inkscape:connector-curvature="0" />
    <path d="m -93100,-248000 h 2680 v 800 h -1690 v 700 h 1590 v 800 h -1590 v 1600 h -990 z" style="fill:#ffff00;stroke-width:0" id="path1131" inkscape:connector-curvature="0" />
  </g>
  <g aria-label="100nF" transform="rotate(90)" style="font-style:normal;font-variant:normal;font-weight:bold;font-stretch:normal;font-size:5292px;line-height:1.2;font-family:sans-serif;-inkscape-font-specification:'sans-serif Bold';letter-spacing:0px;word-spacing:0px;fill:#ffff00;fill-opacity:1;stroke:none;stroke-width:0" id="text1046">
    <path d="m -49920,-298500 h 880 v -2500 l -900,200 v -700 l 890,-200 h 950 v 3200 h 880 v 700 h -2700 z" style="fill:#ffff00;stroke-width:0" id="path1134" inkscape:connector-curvature="0" />
    <path d="m -44420,-299700 q 0,-800 -140,-1100 -140,-200 -460,-200 -320,0 -450,200 -140,300 -140,1100 0,700 140,1000 130,300 450,300 320,0 460,-300 140,-300 140,-1000 z m 990,0 q 0,900 -410,1500 -420,500 -1180,500 -760,0 -1170,-500 -420,-600 -420,-1500 0,-1000 420,-1500 410,-500 1170,-500 760,0 1180,500 410,500 410,1500 z" style="fill:#ffff00;stroke-width:0" id="path1136" inkscape:connector-curvature="0" />
    <path d="m -40740,-299700 q 0,-800 -140,-1100 -130,-200 -450,-200 -320,0 -460,200 -140,300 -140,1100 0,700 140,1000 140,300 460,300 310,0 450,-300 140,-300 140,-1000 z m 990,0 q 0,900 -410,1500 -410,500 -1170,500 -770,0 -1180,-500 -410,-600 -410,-1500 0,-1000 410,-1500 410,-500 1180,-500 760,0 1170,500 410,500 410,1500 z" style="fill:#ffff00;stroke-width:0" id="path1138" inkscape:connector-curvature="0" />
    <path d="m -36140,-299600 v 1800 h -930 v -300 -1000 q 0,-400 -20,-600 -10,-100 -60,-200 -50,-100 -140,-100 -100,-100 -210,-100 -290,0 -460,300 -160,200 -160,600 v 1400 h -930 v -2900 h 930 v 400 q 200,-200 440,-300 240,-200 520,-200 500,0 760,300 260,400 260,900 z" style="fill:#ffff00;stroke-width:0" id="path1140" inkscape:connector-curvature="0" />
    <path d="m -35240,-301700 h 2680 v 800 h -1690 v 700 h 1590 v 800 h -1590 v 1600 h -990 z" style="fill:#ffff00;stroke-width:0" id="path1142" inkscape:connector-curvature="0" />
  </g>
  <g aria-label="9pF" transform="rotate(90)" style="font-style:normal;font-variant:normal;font-weight:bold;font-stretch:normal;font-size:5292px;line-height:1.2;font-family:sans-serif;-inkscape-font-specification:'sans-serif Bold';letter-spacing:0px;word-spacing:0px;fill:#ffff00;fill-opacity:1;stroke:none;stroke-width:0" id="text1050">
    <path d="m -46370,-309500 v -700 q 240,100 450,200 220,0 430,0 450,0 700,-200 240,-300 290,-800 -180,200 -380,200 -200,100 -430,100 -590,0 -950,-300 -370,-400 -370,-1000 0,-600 410,-900 400,-400 1080,-400 760,0 1170,500 410,500 410,1400 0,1000 -480,1500 -480,600 -1330,600 -270,0 -510,-100 -250,0 -490,-100 z m 1230,-1800 q 260,0 390,-200 130,-200 130,-500 0,-400 -130,-500 -130,-200 -390,-200 -260,0 -400,200 -130,100 -130,500 0,300 130,500 140,200 400,200 z" style="fill:#ffff00;stroke-width:0" id="path1145" inkscape:connector-curvature="0" />
    <path d="m -41850,-309800 v 1500 h -920 v -4000 h 920 v 400 q 190,-200 420,-300 240,-200 540,-200 530,0 880,500 340,400 340,1100 0,600 -340,1100 -350,400 -880,400 -300,0 -540,-100 -230,-200 -420,-400 z m 620,-1900 q -300,0 -460,200 -160,200 -160,700 0,400 160,600 160,200 460,200 290,0 450,-200 160,-200 160,-600 0,-500 -160,-700 -160,-200 -450,-200 z" style="fill:#ffff00;stroke-width:0" id="path1147" inkscape:connector-curvature="0" />
    <path d="m -38940,-313300 h 2680 v 800 h -1690 v 700 h 1590 v 800 h -1590 v 1600 h -990 z" style="fill:#ffff00;stroke-width:0" id="path1149" inkscape:connector-curvature="0" />
  </g>
  <g aria-label="9pF" transform="rotate(90)" style="font-style:normal;font-variant:normal;font-weight:bold;font-stretch:normal;font-size:5292px;line-height:1.2;font-family:sans-serif;-inkscape-font-specification:'sans-serif Bold';letter-spacing:0px;word-spacing:0px;fill:#ffff00;fill-opacity:1;stroke:none;stroke-width:0" id="text1054">
    <path d="m -76920,-322000 v -700 q 240,100 450,200 220,0 430,0 450,0 700,-200 240,-300 290,-800 -180,200 -380,200 -200,100 -430,100 -590,0 -950,-300 -370,-400 -370,-1000 0,-600 410,-900 400,-400 1080,-400 760,0 1170,500 410,500 410,1400 0,1000 -480,1500 -480,600 -1330,600 -270,0 -510,-100 -250,0 -490,-100 z m 1230,-1800 q 260,0 390,-200 130,-200 130,-500 0,-400 -130,-500 -130,-200 -390,-200 -260,0 -400,200 -130,100 -130,500 0,300 130,500 140,200 400,200 z" style="fill:#ffff00;stroke-width:0" id="path1152" inkscape:connector-curvature="0" />
    <path d="m -72400,-322300 v 1500 h -920 v -4000 h 920 v 400 q 190,-200 420,-300 240,-200 540,-200 530,0 880,500 340,400 340,1100 0,600 -340,1100 -350,400 -880,400 -300,0 -540,-100 -230,-200 -420,-400 z m 620,-1900 q -300,0 -460,200 -160,200 -160,700 0,400 160,600 160,200 460,200 290,0 450,-200 160,-200 160,-600 0,-500 -160,-700 -160,-200 -450,-200 z" style="fill:#ffff00;stroke-width:0" id="path1154" inkscape:connector-curvature="0" />
    <path d="m -69490,-325800 h 2680 v 800 h -1690 v 700 h 1590 v 800 h -1590 v 1600 h -990 z" style="fill:#ffff00;stroke-width:0" id="path1156" inkscape:connector-curvature="0" />
  </g>
  <g aria-label="32kHz" transform="rotate(90)" style="font-style:normal;font-variant:normal;font-weight:bold;font-stretch:normal;font-size:5292px;line-height:1.2;font-family:sans-serif;-inkscape-font-specification:'sans-serif Bold';letter-spacing:0px;word-spacing:0px;fill:#ffff00;fill-opacity:1;stroke:none;stroke-width:0" id="text1058">
    <path d="m -76760,-311800 q 390,100 600,400 200,200 200,600 0,600 -440,900 -440,300 -1280,300 -300,0 -600,-100 -290,0 -590,-100 v -800 q 280,200 560,200 270,100 540,100 390,0 600,-100 220,-200 220,-400 0,-300 -220,-400 -220,-200 -640,-200 h -390 v -600 h 410 q 380,0 560,-100 190,-100 190,-400 0,-200 -180,-300 -180,-100 -510,-100 -240,0 -480,0 -250,100 -490,200 v -800 q 290,0 580,-100 290,0 570,0 750,0 1130,200 370,300 370,800 0,300 -180,500 -180,200 -530,300 z" style="fill:#ffff00;stroke-width:0" id="path1159" inkscape:connector-curvature="0" />
    <path d="m -74010,-310400 h 1690 v 700 h -2800 v -700 l 1410,-1300 q 190,-100 280,-300 90,-200 90,-300 0,-300 -190,-500 -180,-100 -480,-100 -230,0 -510,100 -270,100 -590,200 v -800 q 340,-100 660,-200 330,0 650,0 690,0 1070,300 390,300 390,800 0,300 -160,600 -170,300 -690,700 z" style="fill:#ffff00;stroke-width:0" id="path1161" inkscape:connector-curvature="0" />
    <path d="m -71410,-313700 h 920 v 2200 l 1070,-1100 h 1070 l -1410,1300 1520,1600 h -1120 l -1130,-1200 v 1200 h -920 z" style="fill:#ffff00;stroke-width:0" id="path1163" inkscape:connector-curvature="0" />
    <path d="m -67850,-313600 h 990 v 1500 h 1470 v -1500 h 1000 v 3900 h -1000 v -1600 h -1470 v 1600 h -990 z" style="fill:#ffff00;stroke-width:0" id="path1165" inkscape:connector-curvature="0" />
    <path d="m -63610,-312600 h 2530 v 700 l -1530,1500 h 1530 v 700 h -2590 v -600 l 1520,-1600 h -1460 z" style="fill:#ffff00;stroke-width:0" id="path1167" inkscape:connector-curvature="0" />
  </g>
  <g aria-label="1k5Ω" transform="rotate(90)" style="font-style:normal;font-variant:normal;font-weight:bold;font-stretch:normal;font-size:5292px;line-height:1.2;font-family:sans-serif;-inkscape-font-specification:'sans-serif Bold';letter-spacing:0px;word-spacing:0px;fill:#ffff00;fill-opacity:1;stroke:none;stroke-width:0" id="text1062">
    <path d="m -82290,-343200 h 880 v -2500 l -900,200 v -700 l 890,-200 h 950 v 3200 h 880 v 700 h -2700 z" style="fill:#ffff00;stroke-width:0" id="path1170" inkscape:connector-curvature="0" />
    <path d="m -78780,-346500 h 920 v 2200 l 1070,-1100 h 1070 l -1410,1300 1520,1600 h -1120 l -1130,-1200 v 1200 h -920 z" style="fill:#ffff00;stroke-width:0" id="path1172" inkscape:connector-curvature="0" />
    <path d="m -75150,-346400 h 2470 v 800 h -1670 v 600 q 110,-100 220,-100 120,0 240,0 710,0 1100,400 390,300 390,900 0,700 -430,1000 -420,400 -1180,400 -330,0 -650,-100 -320,-100 -640,-200 v -800 q 310,200 600,300 280,100 530,100 360,0 570,-200 210,-200 210,-500 0,-300 -210,-400 -210,-200 -570,-200 -210,0 -460,0 -240,100 -520,200 z" style="fill:#ffff00;stroke-width:0" id="path1174" inkscape:connector-curvature="0" />
    <path d="m -69780,-346400 q 930,0 1460,500 530,500 530,1300 0,900 -680,1300 h 800 v 800 h -1770 v -800 q 100,-100 170,-100 450,-500 450,-1100 0,-500 -250,-900 -250,-300 -710,-300 -450,0 -700,300 -250,400 -250,900 0,600 440,1100 80,0 180,100 v 800 h -1770 v -800 h 790 q -670,-400 -670,-1300 0,-800 520,-1300 530,-500 1460,-500 z" style="fill:#ffff00;stroke-width:0" id="path1176" inkscape:connector-curvature="0" />
  </g>
  <g aria-label="1k5Ω" transform="rotate(90)" style="font-style:normal;font-variant:normal;font-weight:bold;font-stretch:normal;font-size:5292px;line-height:1.2;font-family:sans-serif;-inkscape-font-specification:'sans-serif Bold';letter-spacing:0px;word-spacing:0px;fill:#ffff00;fill-opacity:1;stroke:none;stroke-width:0" id="text1066">
    <path d="m -52880,-325600 h 880 v -2500 l -900,200 v -700 l 890,-200 h 950 v 3200 h 880 v 700 h -2700 z" style="fill:#ffff00;stroke-width:0" id="path1179" inkscape:connector-curvature="0" />
    <path d="m -49370,-328900 h 920 v 2200 l 1070,-1100 h 1070 l -1410,1300 1520,1600 h -1120 l -1130,-1200 v 1200 h -920 z" style="fill:#ffff00;stroke-width:0" id="path1181" inkscape:connector-curvature="0" />
    <path d="m -45740,-328800 h 2470 v 800 h -1670 v 600 q 110,-100 220,-100 120,0 240,0 710,0 1100,400 390,300 390,900 0,700 -430,1000 -420,400 -1180,400 -330,0 -650,-100 -320,-100 -640,-200 v -800 q 310,200 600,300 280,100 530,100 360,0 570,-200 210,-200 210,-500 0,-300 -210,-400 -210,-200 -570,-200 -210,0 -460,0 -240,100 -520,200 z" style="fill:#ffff00;stroke-width:0" id="path1183" inkscape:connector-curvature="0" />
    <path d="m -40370,-328800 q 930,0 1460,500 530,500 530,1300 0,900 -680,1300 h 800 v 800 h -1770 v -800 q 100,-100 170,-100 450,-500 450,-1100 0,-500 -250,-900 -250,-300 -710,-300 -450,0 -700,300 -250,400 -250,900 0,600 440,1100 80,0 180,100 v 800 h -1770 v -800 h 790 q -670,-400 -670,-1300 0,-800 520,-1300 530,-500 1460,-500 z" style="fill:#ffff00;stroke-width:0" id="path1185" inkscape:connector-curvature="0" />
  </g>
  <path style="opacity:1;vector-effect:none;fill:#333333;fill-opacity:1;stroke:#333333;stroke-width:1323;stroke-linecap:butt;stroke-linejoin:round;stroke-miterlimit:23.8;stroke-dasharray:none;stroke-dashoffset:0;stroke-opacity:1;paint-order:normal" d="m 272000,-49370 a 655.9,655.9 0 0 1 -700,660 655.9,655.9 0 0 1 -700,-660 655.9,655.9 0 0 1 700,-660 655.9,655.9 0 0 1 700,660 z" id="path1068" />
  <g aria-label="|—" transform="rotate(90)" style="font-style:normal;font-variant:normal;font-weight:bold;font-stretch:normal;font-size:5292px;line-height:1.2;font-family:sans-serif;-inkscape-font-specification:'sans-serif Bold';letter-spacing:0px;word-spacing:0px;fill:#ffff00;fill-opacity:1;stroke:#ff0000;stroke-width:0" id="text1072">
    <path d="m -50990,-339600 v 5200 h -590 v -5200 z" style="fill:#ffff00;stroke:#ff0000;stroke-width:0" id="path1189" inkscape:connector-curvature="0" />
    <path d="m -50030,-337400 h 4720 v 700 h -4720 z" style="fill:#ffff00;stroke:#ff0000;stroke-width:0" id="path1191" inkscape:connector-curvature="0" />
  </g>
  <g aria-label="|—" transform="rotate(90)" style="font-style:normal;font-variant:normal;font-weight:bold;font-stretch:normal;font-size:5292px;line-height:1.2;font-family:sans-serif;-inkscape-font-specification:'sans-serif Bold';letter-spacing:0px;word-spacing:0px;fill:#ffff00;fill-opacity:1;stroke:none;stroke-width:0" id="text1076">
    <path d="m -50990,-350000 v 5200 h -590 v -5200 z" style="fill:#ffff00;stroke-width:0" id="path1194" inkscape:connector-curvature="0" />
    <path d="m -50030,-347800 h 4720 v 700 h -4720 z" style="fill:#ffff00;stroke-width:0" id="path1196" inkscape:connector-curvature="0" />
  </g>
  <g aria-label="grün" transform="rotate(90)" style="font-style:normal;font-variant:normal;font-weight:bold;font-stretch:normal;font-size:3558.9832px;line-height:1.2;font-family:sans-serif;-inkscape-font-specification:'sans-serif Bold';letter-spacing:0px;word-spacing:0px;fill:#ffff00;fill-opacity:1;stroke:none;stroke-width:0" id="text1080">
    <path d="m -34540,-346600 q -130,100 -280,200 -160,100 -360,100 -350,0 -590,-300 -230,-300 -230,-700 0,-400 230,-700 240,-300 590,-300 200,0 360,100 150,100 280,200 v -200 h 630 v 1700 q 0,500 -300,700 -290,300 -860,300 -180,0 -350,-100 -170,0 -340,0 v -500 q 160,100 320,100 150,100 310,100 310,0 450,-200 140,-100 140,-400 z m -410,-1200 q -190,0 -300,100 -110,100 -110,400 0,300 110,400 100,100 300,100 200,0 300,-100 110,-100 110,-400 0,-300 -110,-400 -100,-100 -300,-100 z" style="fill:#ffff00;stroke-width:0" id="path1199" inkscape:connector-curvature="0" />
    <path d="m -31870,-347700 q -80,-100 -160,-100 -80,0 -160,0 -240,0 -370,200 -130,100 -130,400 v 900 h -620 v -1900 h 620 v 300 q 120,-200 270,-300 160,-100 380,-100 30,0 60,0 40,0 110,0 z" style="fill:#ffff00;stroke-width:0" id="path1201" inkscape:connector-curvature="0" />
    <path d="m -31580,-347100 v -1100 h 630 v 100 q 0,200 -10,400 0,300 0,400 0,200 10,300 20,100 50,200 30,0 100,0 60,100 140,100 190,0 300,-200 110,-100 110,-400 v -900 h 630 v 1900 h -630 v -300 q -140,200 -290,300 -160,0 -350,0 -340,0 -510,-200 -180,-200 -180,-600 z m 430,-2000 h 410 v 500 h -410 z m 690,0 h 410 v 500 h -410 z" style="fill:#ffff00;stroke-width:0" id="path1203" inkscape:connector-curvature="0" />
    <path d="m -27070,-347500 v 1200 h -620 v -200 -700 q 0,-300 -20,-400 -10,-100 -30,-100 -40,-100 -100,-100 -70,0 -150,0 -190,0 -300,100 -110,200 -110,400 v 1000 h -630 v -1900 h 630 v 200 q 140,-100 300,-200 150,-100 350,-100 330,0 510,200 170,200 170,600 z" style="fill:#ffff00;stroke-width:0" id="path1205" inkscape:connector-curvature="0" />
  </g>
  <g aria-label="rot" transform="rotate(90)" style="font-style:normal;font-variant:normal;font-weight:bold;font-stretch:normal;font-size:5292px;line-height:1.2;font-family:sans-serif;-inkscape-font-specification:'sans-serif Bold';letter-spacing:0px;word-spacing:0px;fill:#ffff00;fill-opacity:1;stroke:#ff0000;stroke-width:0" id="text1084">
    <path d="m -33500,-337700 q -120,-100 -240,-100 -120,0 -240,0 -360,0 -550,200 -190,200 -190,700 v 1300 h -930 v -2900 h 930 v 500 q 180,-300 410,-400 230,-200 550,-200 50,0 100,0 60,0 160,100 z" style="fill:#ffff00;stroke:#ff0000;stroke-width:0" id="path1208" inkscape:connector-curvature="0" />
    <path d="m -31660,-337900 q -310,0 -470,200 -160,200 -160,700 0,400 160,600 160,200 470,200 300,0 460,-200 160,-200 160,-600 0,-500 -160,-700 -160,-200 -460,-200 z m 0,-700 q 750,0 1170,400 420,400 420,1200 0,700 -420,1100 -420,400 -1170,400 -750,0 -1170,-400 -420,-400 -420,-1100 0,-800 420,-1200 420,-400 1170,-400 z" style="fill:#ffff00;stroke:#ff0000;stroke-width:0" id="path1210" inkscape:connector-curvature="0" />
    <path d="m -28390,-339300 v 800 h 950 v 700 h -950 v 1200 q 0,200 80,300 80,0 320,0 h 470 v 700 h -790 q -550,0 -780,-200 -230,-300 -230,-800 v -1200 h -460 v -700 h 460 v -800 z" style="fill:#ffff00;stroke:#ff0000;stroke-width:0" id="path1212" inkscape:connector-curvature="0" />
  </g>
  <path style="fill:none;stroke:#ff0000;stroke-width:793.75;stroke-linecap:butt;stroke-linejoin:miter;stroke-opacity:1;stroke-miterlimit:4;stroke-dasharray:none" d="m 334000,-83330 h -36400 v 30190 h 7800 v 24610 h 16500 v -30820 h 12400 v -23920 z" id="path1086" inkscape:connector-curvature="0" />
  <g aria-label="Quarz" style="font-style:normal;font-variant:normal;font-weight:bold;font-stretch:normal;font-size:5292px;line-height:1.2;font-family:sans-serif;-inkscape-font-specification:'sans-serif Bold';letter-spacing:0px;word-spacing:0px;fill:#ff0000;fill-opacity:1;stroke:none;stroke-width:0" id="text1090">
    <path d="m 309100,-84920 h -100 q -1000,0 -1500,-530 -500,-520 -500,-1470 0,-930 500,-1470 500,-530 1400,-530 1000,0 1500,530 500,530 500,1470 0,660 -200,1130 -300,470 -800,700 l 700,870 h -900 z m -200,-3280 q -400,0 -700,340 -200,330 -200,940 0,620 200,960 300,320 700,320 500,0 800,-330 200,-340 200,-950 0,-610 -200,-940 -300,-340 -800,-340 z" style="fill:#ff0000;stroke-width:0" id="path1215" inkscape:connector-curvature="0" />
    <path d="m 311600,-86120 v -1760 h 900 v 280 q 0,240 0,600 0,350 0,470 0,350 100,500 0,160 0,230 100,90 200,140 100,40 200,40 300,0 400,-220 200,-220 200,-620 v -1420 h 900 v 2890 h -900 v -420 q -200,250 -400,380 -300,110 -600,110 -500,0 -700,-300 -300,-310 -300,-900 z" style="fill:#ff0000;stroke-width:0" id="path1217" inkscape:connector-curvature="0" />
    <path d="m 316700,-86290 q -300,0 -400,100 -200,90 -200,280 0,180 100,280 200,100 400,100 200,0 400,-190 200,-190 200,-470 v -100 z m 1400,-350 v 1650 h -900 v -430 q -200,260 -400,390 -300,110 -600,110 -400,0 -700,-260 -300,-260 -300,-680 0,-510 300,-750 400,-230 1100,-230 h 600 v -80 q 0,-220 -200,-320 -200,-100 -500,-100 -300,0 -600,60 -200,60 -500,180 v -710 q 300,-70 600,-110 300,-30 600,-30 800,0 1200,310 300,300 300,1000 z" style="fill:#ff0000;stroke-width:0" id="path1219" inkscape:connector-curvature="0" />
    <path d="m 321100,-87100 q -100,-50 -200,-80 -100,-30 -300,-30 -300,0 -500,230 -200,230 -200,660 v 1330 h -900 v -2890 h 900 v 470 q 200,-280 400,-410 200,-130 600,-130 0,0 100,0 0,0 100,20 z" style="fill:#ff0000;stroke-width:0" id="path1221" inkscape:connector-curvature="0" />
    <path d="m 321400,-87880 h 2600 v 640 l -1600,1590 h 1600 v 660 h -2600 v -650 l 1500,-1580 h -1500 z" style="fill:#ff0000;stroke-width:0" id="path1223" inkscape:connector-curvature="0" />
  </g>
  <path style="fill:none;stroke:#ff0000;stroke-width:793.75;stroke-linecap:butt;stroke-linejoin:miter;stroke-opacity:1;stroke-miterlimit:4;stroke-dasharray:none" d="m 239500,-70700 v -27760 h -31400 v 27780 c 10500,-40 20900,-20 31400,-20 z" id="path1002" inkscape:connector-curvature="0" sodipodi:nodetypes="ccccc" />
  <text xml:space="preserve" style="font-style:normal;font-variant:normal;font-weight:bold;font-stretch:normal;font-size:3516.3525px;line-height:1.2;font-family:sans-serif;-inkscape-font-specification:'sans-serif Bold';letter-spacing:0px;word-spacing:0px;fill:#ff0000;fill-opacity:1;stroke:#ff0000;stroke-width:0" x="2.12e+05" y="-1.037e+05" id="text1018"><tspan sodipodi:role="line" id="tspan1016" x="2.12e+05" y="-1.037e+05" style="font-size:3516.3525px;fill:#ff0000;stroke:#ff0000;stroke-width:0">Ext. Battery</tspan><tspan sodipodi:role="line" x="2.12e+05" y="-9.948e+04" style="font-size:3516.3525px;fill:#ff0000;stroke:#ff0000;stroke-width:0" id="tspan1020">Measurement</tspan></text>
</svg>
