<?xml version="1.0" encoding="UTF-8" standalone="no"?>
<svg xmlns:dc="http://purl.org/dc/elements/1.1/" xmlns:cc="http://creativecommons.org/ns#" xmlns:rdf="http://www.w3.org/1999/02/22-rdf-syntax-ns#" xmlns:svg="http://www.w3.org/2000/svg" xmlns="http://www.w3.org/2000/svg" xmlns:xlink="http://www.w3.org/1999/xlink" xmlns:sodipodi="http://sodipodi.sourceforge.net/DTD/sodipodi-0.dtd" xmlns:inkscape="http://www.inkscape.org/namespaces/inkscape" version="1.1" id="o45N4aQUgNGyd4wnvegB_bottom" viewBox="170000 -125000 200000 100000" width="200mm" height="100mm" class="w-100 h-100" sodipodi:docname="StepUp-Bottom-Parts.svg" style="clip-rule:evenodd;fill-rule:evenodd;stroke-width:0;stroke-linecap:round;stroke-linejoin:round" inkscape:version="0.92.4 5da689c313, 2019-01-14">
  <metadata id="metadata160">
    <rdf:RDF>
      <cc:Work rdf:about="">
        <dc:format>image/svg+xml</dc:format>
        <dc:type rdf:resource="http://purl.org/dc/dcmitype/StillImage" />
        <dc:title></dc:title>
      </cc:Work>
    </rdf:RDF>
  </metadata>
  <sodipodi:namedview pagecolor="#ffffff" bordercolor="#666666" borderopacity="1" objecttolerance="10" gridtolerance="10" guidetolerance="10" inkscape:pageopacity="0" inkscape:pageshadow="2" inkscape:window-width="640" inkscape:window-height="480" id="namedview158" showgrid="false" fit-margin-top="0" fit-margin-left="0" fit-margin-right="0" fit-margin-bottom="0" inkscape:zoom="26.55" inkscape:cx="482.4" inkscape:cy="44.84" inkscape:current-layer="o45N4aQUgNGyd4wnvegB_bottom" />
  <defs id="defs143">
    <style id="style2">.o45N4aQUgNGyd4wnvegB_fr4 {color: #666666;}
.o45N4aQUgNGyd4wnvegB_cu {color: #cccccc;}
.o45N4aQUgNGyd4wnvegB_cf {color: #cc9933;}
.o45N4aQUgNGyd4wnvegB_sm {color: #004200; opacity: 0.75;}
.o45N4aQUgNGyd4wnvegB_ss {color: #ffffff;}
.o45N4aQUgNGyd4wnvegB_sp {color: #999999;}
.o45N4aQUgNGyd4wnvegB_out {color: #000000;}</style>
    <rect x="-800" y="-1462" width="1600" height="2924" id="k9DnJQ5e7FqjoJmAuyPb_pad-11" />
    <circle cx="0" cy="0" r="1050" id="k9DnJQ5e7FqjoJmAuyPb_pad-12" />
    <rect x="-1050" y="-1050" width="2100" height="2100" rx="1050" ry="1050" id="k9DnJQ5e7FqjoJmAuyPb_pad-13" />
    <rect x="-1700" y="-1050" width="3400" height="2100" id="k9DnJQ5e7FqjoJmAuyPb_pad-14" />
    <rect x="-950" y="-825" width="1900" height="1650" id="k9DnJQ5e7FqjoJmAuyPb_pad-15" />
    <circle cx="0" cy="0" r="1300" id="k9DnJQ5e7FqjoJmAuyPb_pad-16" />
    <rect x="-875" y="-875" width="1750" height="1750" id="k9DnJQ5e7FqjoJmAuyPb_pad-17" />
    <rect x="-950" y="-400" width="1900" height="800" id="k9DnJQ5e7FqjoJmAuyPb_pad-18" />
    <rect x="-1597" y="-1089" width="3194" height="2178" id="k9DnJQ5e7FqjoJmAuyPb_pad-19" />
    <rect x="-685" y="-835" width="1370" height="1670" id="k9DnJQ5e7FqjoJmAuyPb_pad-20" />
    <g id="o45N4aQUgNGyd4wnvegB_bottom_silkscreen">
      <path d="m 172400,-102000 v 1000 m -400,-900 -100,-100 h -300 l -100,100 0,0 -100,100 v 100 l 100,100 0,0 100,100 200,0 100,100 100,0 0,100 v 100 l 0,100 -100,100 -100,0 h -200 l -200,0 m -400,-1000 v 1000 h -400 l -100,0 0,-100 -100,-100 v -100 l 100,-100 0,-100 100,0 h 400" id="path14" inkscape:connector-curvature="0" style="fill:none;stroke-width:150" />
      <path d="m 175100,-99710 v 600 l -200,-430 -200,430 v -600 m -300,0 v 600 m -300,-570 -100,-30 h -100 l -100,30 0,20 0,60 v 60 l 0,60 0,20 100,30 100,30 100,30 0,30 0,60 v 50 l 0,60 0,30 -100,30 h -100 l -100,-30 m -400,30 h -100 l -100,-30 0,-60 -100,-110 v -200 l 100,-120 0,-50 100,-30 h 100 l 100,30 0,50 0,120 v 200 l 0,110 0,60 -100,30 m 1400,1970 -100,-30 h -200 l 0,30 -100,20 0,60 v 60 l 0,60 100,20 0,30 100,30 100,30 0,30 100,60 v 50 l -100,60 0,30 -100,30 h -100 l -100,-30 m -600,-520 0,-20 100,-30 h 100 l 100,30 0,50 100,60 0,110 v 90 l 0,110 -100,60 0,60 -100,30 h -100 l -100,-30 0,-30 m -200,-540 v 600 m -400,-600 300,340 m -300,260 400,-350 m 1800,2290 200,280 m 100,-280 v 600 h -200 l -100,-30 0,-30 0,-60 v -80 l 0,-60 0,-30 100,-30 h 200 m -600,30 h -200 m -100,-310 h 300 v 600 h -300 m -200,-570 -100,-30 h -100 l -100,30 0,20 0,60 v 60 l 0,60 0,20 100,30 100,30 0,30 100,30 0,60 v 50 l 0,60 -100,30 0,30 h -200 l 0,-30 m -300,-260 h -200 m -100,-310 h 300 v 600 h -300 m -200,0 h -300 m 200,-600 v 600 m 1700,4350 v 600 l -200,-430 -200,430 v -600 m -400,600 h -200 l 0,-30 -100,-60 0,-110 v -200 l 0,-110 100,-60 0,-30 h 200 l 0,30 100,60 0,110 v 200 l 0,110 -100,60 0,30 m -500,-570 -100,-30 h -200 l 0,30 0,30 -100,50 v 60 l 100,60 0,30 0,30 200,20 0,30 0,30 100,60 v 60 l -100,50 0,30 0,30 h -200 l -100,-30 m -200,-570 v 600" id="path16" inkscape:connector-curvature="0" style="fill:none;stroke-width:100" />
      <path d="m 189600,-107300 h -16000 v 19020 h 16000 v -19020" id="path18" inkscape:connector-curvature="0" style="fill:none;stroke-width:150" />
      <path d="m 186700,-109000 h 1000 m 0,-1700 h -1000 m -6300,-10000 h -1000 m 0,1700 h 1000 m -1000,5200 h 1000 m 0,-1700 h -1000 m -300,-600 h 1900 m -500,-2300 h -1400" id="path20" inkscape:connector-curvature="0" style="fill:none;stroke-width:120" />
      <path d="m 182600,-114500 h 3000 m 0,-3700 v -1900 h -3000 v 1900 m 0,1700 v 2000 m 0,-200 h 3000 m 0,200 v -2000" id="path22" inkscape:connector-curvature="0" style="fill:none;stroke-width:150" />
      <path d="m 185400,-113500 h -2600 m 0,1800 h 2600 m -2600,0 v -1800 m 2600,0 v 1800" id="path24" inkscape:connector-curvature="0" style="fill:none;stroke-width:120" />
      <path d="m 182600,-100700 v 970 m -1100,-870 100,-100 100,0 h 100 l 200,0 100,100 0,100 100,200 v 100 l -100,230 0,90 -100,100 -200,50 h -100 l -100,-50 -100,-50 m -300,0 -100,50 -100,50 h -200 l -100,-50 -100,-50 0,-100 v -70 l 0,-200 600,-500 h -600 m 7900,-10800 100,-100 100,0 h 100 l 100,0 100,100 100,100 0,200 v 200 l 0,200 -100,100 -100,0 -100,100 h -100 l -100,-100 -100,0 m -300,100 h -600 l 300,-400 h -200 l 0,0 -100,-100 0,-100 v -200 l 0,-100 100,-100 0,0 h 300 l 100,0 100,100 m -11400,-8800 100,-100 100,0 h 100 l 200,0 0,100 100,100 0,200 v 200 l 0,200 -100,100 0,0 -200,100 h -100 l -100,-100 -100,0 m -800,100 h 200 l 100,-100 0,0 100,-100 0,-200 v -400 l 0,-100 -100,-100 0,0 h -200 l -100,0 -100,100 0,100 v 200 l 0,100 100,100 100,0 h 200 l 0,0 100,-100 0,-100 m 300,5000 100,-100 100,0 h 100 l 200,0 100,100 0,100 100,200 v 100 l -100,200 0,100 -100,100 -200,100 h -100 l -100,-100 -100,0 m -300,100 h -700 l 500,-1000 m 900,-2700 v 1000 m -1100,-900 100,-100 100,0 h 100 l 100,0 100,100 100,100 0,200 v 200 l 0,200 -100,100 -100,100 -100,0 h -100 l -100,0 -100,-100 m -300,100 h -600 l 300,-400 h -100 l -100,0 -100,-100 0,-100 v -200 l 0,-100 100,-100 100,0 h 200 l 100,0 100,100 m 8600,-3700 h 400 v 1000 m -1300,-1000 h 600 m -300,0 v 1000 l 100,-200 100,-100 100,0 m -1700,8800 v -700 l 0,-200 100,-100 100,0 h 100 m -800,0 v 1000 h -400 l -100,-100 0,0 -100,-100 v -100 l 100,-100 0,-100 100,0 h 400 m -1500,-500 h 500 m -300,0 v 1000 l 100,-200 100,0 100,-100" id="path26" inkscape:connector-curvature="0" style="fill:none;stroke-width:150" />
    </g>
    <g id="o45N4aQUgNGyd4wnvegB_bottom_soldermask">
      <use xlink:href="#k9DnJQ5e7FqjoJmAuyPb_pad-11" x="188610" y="-107282" id="use29" width="100%" height="100%" />
      <use xlink:href="#k9DnJQ5e7FqjoJmAuyPb_pad-11" x="186610" y="-107282" id="use31" width="100%" height="100%" />
      <use xlink:href="#k9DnJQ5e7FqjoJmAuyPb_pad-11" x="184610" y="-107282" id="use33" width="100%" height="100%" />
      <use xlink:href="#k9DnJQ5e7FqjoJmAuyPb_pad-11" x="182610" y="-107282" id="use35" width="100%" height="100%" />
      <use xlink:href="#k9DnJQ5e7FqjoJmAuyPb_pad-11" x="180610" y="-107282" id="use37" width="100%" height="100%" />
      <use xlink:href="#k9DnJQ5e7FqjoJmAuyPb_pad-11" x="178610" y="-107282" id="use39" width="100%" height="100%" />
      <use xlink:href="#k9DnJQ5e7FqjoJmAuyPb_pad-11" x="176610" y="-107282" id="use41" width="100%" height="100%" />
      <use xlink:href="#k9DnJQ5e7FqjoJmAuyPb_pad-11" x="174610" y="-107282" id="use43" width="100%" height="100%" />
      <use xlink:href="#k9DnJQ5e7FqjoJmAuyPb_pad-11" x="180610" y="-88282" id="use45" width="100%" height="100%" />
      <use xlink:href="#k9DnJQ5e7FqjoJmAuyPb_pad-11" x="182610" y="-88282" id="use47" width="100%" height="100%" />
      <use xlink:href="#k9DnJQ5e7FqjoJmAuyPb_pad-11" x="178610" y="-88282" id="use49" width="100%" height="100%" />
      <use xlink:href="#k9DnJQ5e7FqjoJmAuyPb_pad-12" x="1.709e+05" y="-1.111e+05" id="use51" width="100%" height="100%" />
      <use xlink:href="#k9DnJQ5e7FqjoJmAuyPb_pad-13" x="1.709e+05" y="-1.136e+05" id="use53" width="100%" height="100%" />
      <use xlink:href="#k9DnJQ5e7FqjoJmAuyPb_pad-13" x="1.709e+05" y="-1.161e+05" id="use55" width="100%" height="100%" />
      <use xlink:href="#k9DnJQ5e7FqjoJmAuyPb_pad-13" x="1.709e+05" y="-1.187e+05" id="use57" width="100%" height="100%" />
      <use xlink:href="#k9DnJQ5e7FqjoJmAuyPb_pad-14" x="1.714e+05" y="-99441" id="use59" width="100%" height="100%" />
      <use xlink:href="#k9DnJQ5e7FqjoJmAuyPb_pad-14" x="1.714e+05" y="-94361" id="use61" width="100%" height="100%" />
      <use xlink:href="#k9DnJQ5e7FqjoJmAuyPb_pad-14" x="1.714e+05" y="-89281" id="use63" width="100%" height="100%" />
      <use xlink:href="#k9DnJQ5e7FqjoJmAuyPb_pad-14" x="1.714e+05" y="-96901" id="use65" width="100%" height="100%" />
      <use xlink:href="#k9DnJQ5e7FqjoJmAuyPb_pad-14" x="1.714e+05" y="-91821" id="use67" width="100%" height="100%" />
      <use xlink:href="#k9DnJQ5e7FqjoJmAuyPb_pad-12" x="1.887e+05" y="-1.136e+05" id="use69" width="100%" height="100%" />
      <use xlink:href="#k9DnJQ5e7FqjoJmAuyPb_pad-13" x="1.887e+05" y="-1.161e+05" id="use71" width="100%" height="100%" />
      <use xlink:href="#k9DnJQ5e7FqjoJmAuyPb_pad-13" x="1.887e+05" y="-1.187e+05" id="use73" width="100%" height="100%" />
      <use xlink:href="#k9DnJQ5e7FqjoJmAuyPb_pad-13" x="1.887e+05" y="-1.212e+05" id="use75" width="100%" height="100%" />
      <use xlink:href="#k9DnJQ5e7FqjoJmAuyPb_pad-12" x="188722" y="-1.238e+05" id="use77" width="100%" height="100%" />
      <use xlink:href="#k9DnJQ5e7FqjoJmAuyPb_pad-13" x="186182" y="-1.238e+05" id="use79" width="100%" height="100%" />
      <use xlink:href="#k9DnJQ5e7FqjoJmAuyPb_pad-13" x="183642" y="-1.238e+05" id="use81" width="100%" height="100%" />
      <use xlink:href="#k9DnJQ5e7FqjoJmAuyPb_pad-13" x="181102" y="-1.238e+05" id="use83" width="100%" height="100%" />
      <use xlink:href="#k9DnJQ5e7FqjoJmAuyPb_pad-13" x="178562" y="-1.238e+05" id="use85" width="100%" height="100%" />
      <use xlink:href="#k9DnJQ5e7FqjoJmAuyPb_pad-13" x="176022" y="-1.238e+05" id="use87" width="100%" height="100%" />
      <use xlink:href="#k9DnJQ5e7FqjoJmAuyPb_pad-15" x="188448" y="-1.099e+05" id="use89" width="100%" height="100%" />
      <use xlink:href="#k9DnJQ5e7FqjoJmAuyPb_pad-15" x="185948" y="-1.099e+05" id="use91" width="100%" height="100%" />
      <use xlink:href="#k9DnJQ5e7FqjoJmAuyPb_pad-16" x="188087" y="-86741" id="use93" width="100%" height="100%" />
      <use xlink:href="#k9DnJQ5e7FqjoJmAuyPb_pad-16" x="171958" y="-123190" id="use95" width="100%" height="100%" />
      <use xlink:href="#k9DnJQ5e7FqjoJmAuyPb_pad-17" x="171831" y="-8.642e+04" id="use97" width="100%" height="100%" />
      <use xlink:href="#k9DnJQ5e7FqjoJmAuyPb_pad-15" x="1.786e+05" y="-119888" id="use99" width="100%" height="100%" />
      <use xlink:href="#k9DnJQ5e7FqjoJmAuyPb_pad-15" x="1.811e+05" y="-119888" id="use101" width="100%" height="100%" />
      <use xlink:href="#k9DnJQ5e7FqjoJmAuyPb_pad-15" x="1.811e+05" y="-1.146e+05" id="use103" width="100%" height="100%" />
      <use xlink:href="#k9DnJQ5e7FqjoJmAuyPb_pad-15" x="1.786e+05" y="-1.146e+05" id="use105" width="100%" height="100%" />
      <use xlink:href="#k9DnJQ5e7FqjoJmAuyPb_pad-18" x="1.811e+05" y="-116571" id="use107" width="100%" height="100%" />
      <use xlink:href="#k9DnJQ5e7FqjoJmAuyPb_pad-18" x="1.811e+05" y="-117221" id="use109" width="100%" height="100%" />
      <use xlink:href="#k9DnJQ5e7FqjoJmAuyPb_pad-18" x="1.811e+05" y="-117871" id="use111" width="100%" height="100%" />
      <use xlink:href="#k9DnJQ5e7FqjoJmAuyPb_pad-18" x="1.784e+05" y="-117871" id="use113" width="100%" height="100%" />
      <use xlink:href="#k9DnJQ5e7FqjoJmAuyPb_pad-18" x="1.784e+05" y="-117221" id="use115" width="100%" height="100%" />
      <use xlink:href="#k9DnJQ5e7FqjoJmAuyPb_pad-18" x="1.784e+05" y="-116571" id="use117" width="100%" height="100%" />
      <use xlink:href="#k9DnJQ5e7FqjoJmAuyPb_pad-19" x="1.841e+05" y="-1.155e+05" id="use119" width="100%" height="100%" />
      <use xlink:href="#k9DnJQ5e7FqjoJmAuyPb_pad-19" x="1.841e+05" y="-1.191e+05" id="use121" width="100%" height="100%" />
      <use xlink:href="#k9DnJQ5e7FqjoJmAuyPb_pad-20" x="1.847e+05" y="-1.126e+05" id="use123" width="100%" height="100%" />
      <use xlink:href="#k9DnJQ5e7FqjoJmAuyPb_pad-20" x="1.834e+05" y="-1.126e+05" id="use125" width="100%" height="100%" />
    </g>
    <clipPath id="o45N4aQUgNGyd4wnvegB_bottom_outline">
      <path d="m 170000,-125000 v 40000 h 20000 v -40000 h -20000" id="path128" inkscape:connector-curvature="0" style="fill:none;stroke-width:150" />
    </clipPath>
    <mask id="o45N4aQUgNGyd4wnvegB_bottom_mech-mask">
      <g id="g133" style="fill:#000000;stroke:#000000">
        <rect x="170000" y="-125000" width="20000" height="40000" id="rect131" style="fill:#ffffff" />
      </g>
    </mask>
    <mask id="o45N4aQUgNGyd4wnvegB_bottom_sm-mask">
      <g id="g140" style="fill:#000000;stroke:#000000">
        <rect x="170000" y="-125000" width="20000" height="40000" id="rect136" style="fill:#ffffff" />
        <use xlink:href="#o45N4aQUgNGyd4wnvegB_bottom_soldermask" id="use138" x="0" y="0" width="100%" height="100%" />
      </g>
    </mask>
  </defs>
  <g transform="matrix(0,-5,-5,0,-255000,825000)" id="g155" sodipodi:insensitive="true">
    <g mask="url(#o45N4aQUgNGyd4wnvegB_bottom_mech-mask)" clip-path="url(#o45N4aQUgNGyd4wnvegB_bottom_outline)" transform="matrix(-1,0,0,1,360000,0)" id="g153">
      <rect x="170000" y="-125000" width="20000" height="40000" class="o45N4aQUgNGyd4wnvegB_fr4" id="rect145" style="color:#666666;fill:currentColor" />
      <g mask="url(#o45N4aQUgNGyd4wnvegB_bottom_sm-mask)" id="g151">
        <rect x="170000" y="-125000" width="20000" height="40000" class="o45N4aQUgNGyd4wnvegB_sm" id="rect147" style="color:#004200;opacity:0.75;fill:currentColor" />
        <use xlink:href="#o45N4aQUgNGyd4wnvegB_bottom_silkscreen" class="o45N4aQUgNGyd4wnvegB_ss" id="use149" style="color:#ffffff;fill:currentColor;stroke:currentColor" x="0" y="0" width="100%" height="100%" />
      </g>
    </g>
  </g>
  <text xml:space="preserve" style="font-style:normal;font-variant:normal;font-weight:bold;font-stretch:normal;font-size:3704.3999px;line-height:1.2;font-family:sans-serif;-inkscape-font-specification:'sans-serif Bold';letter-spacing:0px;word-spacing:0px;fill:#ffff00;fill-opacity:1;stroke:none;stroke-width:0" x="2.795e+04" y="2.967e+05" id="text969" transform="rotate(-90)"><tspan sodipodi:role="line" id="tspan967" x="2.795e+04" y="2.967e+05" style="font-size:6350px;fill:#ffff00;stroke-width:0">100nF</tspan></text>
  <text transform="rotate(-90)" id="text973" y="3.198e+05" x="66510" style="font-style:normal;font-variant:normal;font-weight:bold;font-stretch:normal;font-size:3704.3999px;line-height:1.2;font-family:sans-serif;-inkscape-font-specification:'sans-serif Bold';letter-spacing:0px;word-spacing:0px;fill:#ffff00;fill-opacity:1;stroke:none;stroke-width:0" xml:space="preserve"><tspan style="font-size:6350px;fill:#ffff00;stroke-width:0" y="3.198e+05" x="66510" id="tspan971" sodipodi:role="line">10µF</tspan></text>
  <text xml:space="preserve" style="font-style:normal;font-variant:normal;font-weight:bold;font-stretch:normal;font-size:3704.3999px;line-height:1.2;font-family:sans-serif;-inkscape-font-specification:'sans-serif Bold';letter-spacing:0px;word-spacing:0px;fill:#ffff00;fill-opacity:1;stroke:none;stroke-width:0" x="66510" y="3.462e+05" id="text977" transform="rotate(-90)"><tspan sodipodi:role="line" id="tspan975" x="66510" y="3.462e+05" style="font-size:6350px;fill:#ffff00;stroke-width:0">10µF</tspan></text>
  <path style="fill:#1a4b1a;fill-opacity:1;stroke:#1a4b1a;stroke-width:529.1667;stroke-linecap:butt;stroke-linejoin:miter;stroke-miterlimit:4;stroke-dasharray:none;stroke-opacity:1" d="m 329200,-87760 v 9510" id="path979" inkscape:connector-curvature="0" />
  <path inkscape:connector-curvature="0" id="path981" d="m 333100,-87760 v 9510" style="fill:#1a4b1a;fill-opacity:1;stroke:#1a4b1a;stroke-width:529.1667;stroke-linecap:butt;stroke-linejoin:miter;stroke-miterlimit:4;stroke-dasharray:none;stroke-opacity:1" />
  <path inkscape:connector-curvature="0" id="path983" d="m 329200,-74260 v 9510" style="fill:#1a4b1a;fill-opacity:1;stroke:#1a4b1a;stroke-width:529.1667;stroke-linecap:butt;stroke-linejoin:miter;stroke-miterlimit:4;stroke-dasharray:none;stroke-opacity:1" />
  <path style="fill:#1a4b1a;fill-opacity:1;stroke:#1a4b1a;stroke-width:529.1667;stroke-linecap:butt;stroke-linejoin:miter;stroke-miterlimit:4;stroke-dasharray:none;stroke-opacity:1" d="m 333100,-74260 v 9510" id="path985" inkscape:connector-curvature="0" />
  <text xml:space="preserve" style="font-style:normal;font-variant:normal;font-weight:bold;font-stretch:normal;font-size:3704.3999px;line-height:1.2;font-family:sans-serif;-inkscape-font-specification:'sans-serif Bold';letter-spacing:0px;word-spacing:0px;fill:#ffff00;fill-opacity:1;stroke:#ffff00;stroke-width:0" x="6.616e+04" y="3.325e+05" id="text1000" transform="rotate(-90)"><tspan sodipodi:role="line" id="tspan998" x="6.616e+04" y="3.325e+05" style="fill:#ffff00;stroke:#ffff00;stroke-width:0">TLV61224</tspan></text>
  <rect style="opacity:1;vector-effect:none;fill:#ffff00;fill-opacity:1;stroke:#333333;stroke-width:529.2;stroke-linecap:butt;stroke-linejoin:round;stroke-miterlimit:4;stroke-dasharray:none;stroke-dashoffset:0;stroke-opacity:1;paint-order:normal" id="rect1002" width="291.6" height="6771" x="326400" y="-7.97e+04" />
  <text xml:space="preserve" style="font-style:normal;font-variant:normal;font-weight:bold;font-stretch:normal;font-size:3704.3999px;line-height:1.2;font-family:sans-serif;-inkscape-font-specification:'sans-serif Bold';letter-spacing:0px;word-spacing:0px;fill:#ffff00;fill-opacity:1;stroke:none;stroke-width:0" x="3.207e+05" y="-5.283e+04" id="text1006"><tspan sodipodi:role="line" id="tspan1004" x="3.207e+05" y="-5.283e+04" style="font-size:6350px;fill:#ffff00;stroke-width:0">4,7µH</tspan></text>
  <path style="fill:#1a4b1a;fill-opacity:1;stroke:#1a4b1a;stroke-width:1058.3333;stroke-linecap:butt;stroke-linejoin:miter;stroke-miterlimit:4;stroke-dasharray:none;stroke-opacity:1" d="m 303800,-54620 h 8400" id="path1008" inkscape:connector-curvature="0" />
  <path style="fill:none;stroke:#ff0000;stroke-width:793.75;stroke-linecap:butt;stroke-linejoin:miter;stroke-opacity:1;stroke-miterlimit:4;stroke-dasharray:none" d="m 300800,-45510 h 53900 v -56390 h -54700 v 56460 z" id="path1010" inkscape:connector-curvature="0" />
  <text xml:space="preserve" style="font-style:normal;font-variant:normal;font-weight:bold;font-stretch:normal;font-size:3704.3999px;line-height:1.2;font-family:sans-serif;-inkscape-font-specification:'sans-serif Bold';letter-spacing:0px;word-spacing:0px;fill:#000000;fill-opacity:1;stroke:none;stroke-width:0" x="3.173e+05" y="-1.039e+05" id="text1014"><tspan sodipodi:role="line" id="tspan1012" x="3.173e+05" y="-1.039e+05" style="font-size:5291.6665px;fill:#ff0000;stroke-width:0">StepUp</tspan></text>
  <path style="fill:#ffffff;stroke:#ffffff;stroke-width:623.4767;stroke-linecap:square;stroke-linejoin:miter;stroke-miterlimit:4;stroke-dasharray:none;stroke-opacity:1" d="m 298400,-36640 v 2590" id="path1016" inkscape:connector-curvature="0" sodipodi:nodetypes="cc" />
</svg>
